<?xml version="1.0" standalone="no"?><!DOCTYPE svg PUBLIC "-//W3C//DTD SVG 1.1//EN" "http://www.w3.org/Graphics/SVG/1.1/DTD/svg11.dtd"><svg t="1606709410191" class="icon" viewBox="0 0 1024 1024" version="1.1" xmlns="http://www.w3.org/2000/svg" p-id="6871" xmlns:xlink="http://www.w3.org/1999/xlink" width="200" height="200"><defs><style type="text/css"></style></defs><path d="M952.32 66.56c-30.72-20.48-66.56-20.48-97.28-10.24C814.08 71.68 773.12 97.28 742.4 128L634.88 235.52l-435.2-102.4c-5.12 0-15.36 0-20.48 5.12l-81.92 81.92c-10.24 10.24-10.24 20.48 0 30.72l5.12 5.12 332.8 184.32-168.96 168.96-128-35.84h-5.12c-5.12 0-10.24 0-15.36 5.12L56.32 640c-10.24 10.24-10.24 20.48 0 30.72L220.16 793.6l122.88 163.84c5.12 5.12 10.24 10.24 15.36 10.24 5.12 0 10.24 0 15.36-5.12l61.44-61.44c5.12-5.12 5.12-15.36 5.12-20.48l-35.84-128 168.96-168.96L768 921.6c5.12 5.12 10.24 10.24 15.36 10.24h5.12c5.12 0 10.24 0 10.24-5.12l81.92-61.44c5.12-5.12 10.24-15.36 10.24-20.48L783.36 389.12 890.88 281.6c30.72-30.72 56.32-71.68 71.68-112.64 15.36-35.84 10.24-71.68-10.24-102.4z" fill="#3b9afe" p-id="6872"></path></svg>