<?xml version="1.0" standalone="no"?><!DOCTYPE svg PUBLIC "-//W3C//DTD SVG 1.1//EN" "http://www.w3.org/Graphics/SVG/1.1/DTD/svg11.dtd"><svg t="1603545314041" class="icon" viewBox="0 0 1024 1024" version="1.1" xmlns="http://www.w3.org/2000/svg" p-id="11924" xmlns:xlink="http://www.w3.org/1999/xlink" width="200" height="200"><defs><style type="text/css"></style></defs><path d="M778.507 464.229c-6.729-38.138-22.374-71.791-44.809-102.749-31.408-38.138-69.518-67.297-116.178-82.555-53.84-20.191-109.464-22.434-165.549-11.217-53.839 11.217-100.766 35.893-138.904 74.031-42.626 42.626-65.327 93.771-65.327 154.344v299.313c0 12.112 9.818 21.93 21.93 21.93h489.037c12.112 0 21.93-9.818 21.93-21.93V497.877c0-11.217 0.114-22.431-2.13-33.648zM449.533 655.507c-19.943 32.637-48.5 50.355-83.613 57.237-13.515 2.649-26.075-7.77-26.075-21.542V476.166c0-13.85 12.682-24.217 26.264-21.507 36.657 7.315 65.466 27.075 85.562 59.964 26.921 47.112 27.025 93.773-2.138 140.884z m232.419 34.789c0 13.776-12.567 24.199-26.084 21.541-35.015-6.887-63.353-24.604-83.292-57.226-29.16-46.215-29.211-93.326-2.291-138.192 20.006-34.559 49.26-54.636 85.327-62.091 13.595-2.81 26.34 7.609 26.34 21.492v214.476zM179.189 880.601c-15.702 0-29.164 8.969-35.893 24.676-6.734 15.702 0 38.137 13.462 49.356 8.974 4.484 17.946 6.728 26.92 6.728h666.734c20.191-2.245 42.622-22.435 35.893-47.11-4.489-20.192-20.191-33.654-40.382-33.654h-29.164M315.588 242.218c-5.109 0-8.171-3.069-10.001-4.902l-0.763-0.765-0.599-0.899c-13.714-20.57-25.226-41.292-36.359-61.33l-0.116-0.21-0.108-0.214c-2.602-5.208-5.641-13.73-5.641-20.604 0-17.059 10.885-32.871 27.087-39.345 4.891-1.956 9.821-2.949 14.651-2.949 7.754 0 19.052 2.589 29.057 14.848 2.065 2.212 3.15 4.383 3.817 5.718 0.109 0.218 0.25 0.5 0.34 0.667l0.935 0.935 0.745 1.342c5.428 9.768 11.597 19.301 17.562 28.519 6.167 9.53 12.589 19.385 18.379 29.806L376 195.32v2.841c0 5.807-1.73 8.47-5.503 12.243l-1.061 1.038-1.285 0.728c-14.958 8.548-30.403 17.372-43.371 25.953-1.885 1.804-4.779 4.095-9.192 4.095zM485.639 182c-5.235 0-9.078-1.876-11.421-5.779-1.601-2.667-1.348-5.18-1.673-8.426l0.456-0.494V94.966c0-11.644 1.619-26.285 18.192-36.272 6.723-4.179 14.641-6.388 22.668-6.388 22.243 0 39.14 16.41 39.14 38.171v76.28c0 3.336-0.381 7.802-4.155 11.575-3.771 3.771-8.721 3.668-12.057 3.668h-51.15zM703.322 241l-2.86-2.274c-16.552-11.823-28.837-20.046-42.208-27.763-5.938-1.699-9.254-7.384-9.254-12.798v-3.319l1.72-2.762c6.606-9.909 12.756-20.072 18.762-29.901 6.02-9.85 12.211-20.03 18.93-30.137 5.632-10.858 14.461-17.626 27-20.756l1.292-0.29h5.833c15.706 0 30.098 8.148 37.557 21.323 7.015 12.39 6.599 26.92-1.135 39.926-12.147 21.864-25.821 44.603-38.517 63.644L717.188 241h-13.866zM191.922 380.857c-3.427 0-5.933-1.251-9.104-2.835l-0.215-0.108-0.21-0.117c-10.294-5.719-20.656-12.052-30.677-18.177-9.77-5.971-19.872-12.145-29.711-17.618-6.379-3.258-12.313-9.151-15.641-15.521-6.798-11.211-7.269-25.276-1.24-37.733 6.266-12.944 18.538-21.55 32.027-23.049l0.604 0.301h2.852c5.001 0 9.321-0.367 16.121 3.037l1.589 0.612 1.106 1.014c0.168 0.091 0.449 0.186 0.667 0.295 1.163 0.582 2.963 1.459 4.872 3.048 9.934 5.557 19.919 11.648 29.586 17.555 9.833 6.009 20 12.216 29.899 17.715l1.342 0.743 0.921 1.084c3.772 3.773 5.29 6.434 5.29 12.237v2.911l-1.279 2.528c-4.577 8.012-9.106 15.506-13.565 22.753-4.364 7.091-8.835 14.424-13.231 22.118l-0.71 1.279-1.032 1.041c-1.71 1.708-4.883 4.887-10.261 4.887zM830.061 381c-7.072 0-10.083-5.474-12.035-9.341-4.475-6.743-8.963-14.123-13.306-21.181-4.358-7.082-9.185-14.449-13.559-21.012L789 326.66v-3.319c0-5.803 2.004-8.466 5.777-12.238l1.246-1.086 1.423-0.746c9.905-5.503 20.12-11.72 29.959-17.732 9.888-6.042 20.127-12.287 30.284-17.945 6.66-4.419 13.543-8.328 23.671-8.328 18.992 0 33.788 10.35 39.571 27.687 6.111 18.347-0.388 34.625-17.391 43.869-5.123 4.761-10.099 7.324-14.562 9.557-8.895 5.553-17.346 10.624-25.524 15.531-7.924 4.755-16.108 9.842-24.64 15.16-1.769 1.648-4.581 3.931-8.752 3.931l-0.001-0.001z" p-id="11925"></path></svg>