<?xml version="1.0" standalone="no"?><!DOCTYPE svg PUBLIC "-//W3C//DTD SVG 1.1//EN" "http://www.w3.org/Graphics/SVG/1.1/DTD/svg11.dtd"><svg t="1606290286271" class="icon" viewBox="0 0 1024 1024" version="1.1" xmlns="http://www.w3.org/2000/svg" p-id="6546" xmlns:xlink="http://www.w3.org/1999/xlink" width="200" height="200"><defs><style type="text/css"></style></defs><path d="M801.347 0c-84.11 0-144.699 64.54-176.568 100.399C594.479 66.589 531.269 0 448.21 0 331.212 0 236.123 93.23 236.123 207.998a202.758 202.758 0 0 0 34 112.179c87.718 161.338 331.676 319.117 334.286 320.137 6.27 3.59 13.06 6.15 19.33 6.15 6.79 0 13.06-2 19.85-6.15l1.57-0.51c41.26-27.66 252.837-173.659 334.326-319.647 22.46-34.32 34.51-73.25 34.51-112.159C1013.435 93.229 918.365 0 801.347 0z" p-id="6547"></path><path d="M980.525 623.414c-13.06-7.17-26.64-11.27-40.22-11.27-39.699 0-69.999 30.74-83.059 44.05-9.4 9.22-19.33 19-28.73 27.66 3.13-1.54 4.7 0 6.79 2 30.82 38.929 27.16 100.398-70.519 175.698C663.438 939.47 417.391 833.432 362.001 801.162c-54.85-31.76 0-88.619 35-67.62 35 21.51 111.269 57.88 242.908 66.59s122.238-54.81 122.238-54.81l-12-5.12c-5.75-1.54-12-2-18.81-2.56-65.819-3.59-170.298-15.37-194.847-30.219a681.663 681.663 0 0 1-69-45.59l-3.13-2.56c-58-40.469-103.999-73.249-217.318-73.249-31.87 0-60.079 8.2-90.899 17.42l-3.08 1.55c-26.64 8.2-52.76 15.88-82.539 15.88-38.65-0.03-70.52 31.22-70.52 69.12v161.368c0 37.91 31.87 69.149 70.52 69.149 70.52 0 158.279 3.59 177.088 9.22 38.13 12.29 129.55 65.06 158.279 83l1.57 1.54h0.54a87.32 87.32 0 0 0 39.7 9.729h299.297c34.48 0 70.999-30.22 84.629-51.74 15.67-25.1 59-86.059 174.478-230.517 3.66-5.12 6.27-8.2 6.27-8.2 0-0.51 0.52-0.51 0.52-1.54 0.52-1.54 2.09-2.56 2.61-4.1 19.35-35.85 4.72-81.91-34.98-104.49z" p-id="6548"></path></svg>