<?xml version="1.0" standalone="no"?><!DOCTYPE svg PUBLIC "-//W3C//DTD SVG 1.1//EN" "http://www.w3.org/Graphics/SVG/1.1/DTD/svg11.dtd"><svg t="1605599660865" class="icon" viewBox="0 0 1105 1024" version="1.1" xmlns="http://www.w3.org/2000/svg" p-id="5022" xmlns:xlink="http://www.w3.org/1999/xlink" width="215.8203125" height="200"><defs><style type="text/css"></style></defs><path d="M281.25682062 991.698965c-89.70837281 0-162.55879594-72.85042312-162.55879593-162.55879594V328.51928469c0-2.40827813-1.80620906-4.21448719-4.21448719-4.21448719H71.43555969C50.06208875 324.3047975 32.90310406 308.34995281 32.90310406 288.78269094V148.801505C32.90310406 84.98212625 88.59454344 33.20413906 156.92944531 33.20413906h607.48824094c68.33490094 0 124.02634031 55.69143938 124.02634031 124.02634032v517.77986906c0 2.40827813 1.80620906 4.21448719 4.21448719 4.21448719h136.97083688c21.37347094 0 38.53245563 17.15898375 38.53245562 38.53245468v149.61429938c0 68.33490094-55.69143938 124.02634031-124.02634031 124.02634031H281.25682062z m611.70272813-243.83819344c-2.40827813 0-4.21448719 1.80620906-4.21448719 4.21448719v115.59736594c0 30.70555031 24.98588906 55.69143938 55.69143938 55.69143937s55.69143938-24.98588906 55.69143843-55.69143937v-115.59736594c0-2.40827813-1.80620906-4.21448719-4.21448718-4.21448719H892.95954875zM191.24741281 324.3047975c-2.40827813 0-4.21448719 1.80620906-4.21448719 4.21448719v500.62088437c0 51.77798719 42.14487281 94.223895 94.223895 94.223895H826.73189094c1.50517406 0 2.70931312-0.60207 3.61241718-1.80620906s0.90310406-2.70931312 0.301035-3.91345219c-6.92380031-15.65380969-10.23518344-32.51175937-10.23518343-49.67074312V157.23047938c0-30.70555031-24.98588906-55.69143938-55.69143938-55.69143938s-55.69143938 24.98588906-55.69143937 55.69143937v131.25117657c0 19.56726281-17.15898375 35.5221075-38.53245469 35.52210656H191.24741281zM157.23047938 101.840075c-30.70555031 0-55.69143938 21.07243688-55.69143938 46.96143v102.65286937c0 2.40827813 1.80620906 4.21448719 4.21448812 4.21448719h530.42332969c2.40827813 0 4.21448719-1.80620906 4.21448719-4.21448719V157.23047938c0-17.15898375 3.61241813-34.01693344 10.23518344-49.67074313 0.60207-1.20413906 0.301035-2.70931312-0.301035-3.91345219-0.90310406-1.20413906-2.10724406-1.80620906-3.61241719-1.80620906H157.23047938z m158.04327374 648.12793969c-18.96519281 0-34.31796844-15.35277563-34.31796749-34.3179675 0-18.96519281 15.35277563-34.31796844 34.3179675-34.31796844h376.59454406c18.96519281 0 34.31796844 15.35277563 34.31796844 34.31796844 0 18.96519281-15.35277563 34.31796844-34.31796844 34.3179675H315.27375313z m1e-8-183.93226688c-18.96519281 0-34.31796844-15.35277563-34.3179675-34.3179675s15.35277563-34.31796844 34.3179675-34.31796843h376.59454406c18.96519281 0 34.31796844 15.35277563 34.31796844 34.31796843s-15.35277563 34.31796844-34.31796844 34.3179675H315.27375313z" p-id="5023"></path></svg>