<?xml version="1.0" standalone="no"?><!DOCTYPE svg PUBLIC "-//W3C//DTD SVG 1.1//EN" "http://www.w3.org/Graphics/SVG/1.1/DTD/svg11.dtd"><svg t="1606290313280" class="icon" viewBox="0 0 1024 1024" version="1.1" xmlns="http://www.w3.org/2000/svg" p-id="6967" xmlns:xlink="http://www.w3.org/1999/xlink" width="200" height="200"><defs><style type="text/css"></style></defs><path d="M863.04 508.16H960V434.4c0-25.12-9.12-34.24-34.56-34.24H98.08C72.96 400 64 409.44 64 434.72v72.96h103.04a32 32 0 1 1 0 64H64v76.48h103.04a32 32 0 0 1 0 64H64v76.48h103.04a32 32 0 0 1 0 64H64v73.92C64 951.68 72.32 960 97.44 960h829.44c24.48 0 33.12-8.48 33.12-32v-74.88h-96.96a32 32 0 0 1 0-64H960v-76.48h-96.96a32 32 0 0 1 0-64H960v-76.48h-96.96a32 32 0 0 1 0-64z m-218.4 144q-54.24 96-108.96 192a26.08 26.08 0 0 1-23.52 16 24.64 24.64 0 0 1-25.12-21.6c-5.12-19.2-9.76-38.56-14.56-57.92a180.64 180.64 0 0 1-4.32-18.4c-1.12-10.56-5.92-14.72-16.96-14.24-16 0.96-33.28 0-49.92 0a24.48 24.48 0 0 1-21.92-38.4c36.16-64 72.8-128 109.12-192a25.44 25.44 0 0 1 26.4-16 25.92 25.92 0 0 1 22.4 22.4c6.24 26.08 13.12 52.16 19.04 78.4 1.92 8.32 5.44 11.68 14.08 11.52h52A24 24 0 0 1 644.64 652zM512 350.88h-72.8c-8.32 0-11.52-3.04-11.2-11.04s0-19.36 0-28.96c0-5.6-1.28-8.96-7.68-10.4a25.92 25.92 0 0 1-20.32-26.4 25.44 25.44 0 0 1 19.84-25.44 8.8 8.8 0 0 0 7.84-10.4 130.72 130.72 0 0 1 0-16c0-11.04 1.44-20.8-13.44-25.28A23.2 23.2 0 0 1 400 170.88a24.48 24.48 0 0 1 18.88-23.04 11.68 11.68 0 0 0 10.24-12.16A81.92 81.92 0 0 1 500 64a83.84 83.84 0 0 1 89.92 51.84 14.72 14.72 0 0 1 1.44 3.68 37.12 37.12 0 0 0 22.56 34.08c17.92 8.64 11.2 38.88-9.12 45.92a11.04 11.04 0 0 0-8.96 12.96v14.88c0 10.72-1.44 20.16 13.44 23.68A22.56 22.56 0 0 1 624 276.16 24.16 24.16 0 0 1 606.08 300c-8.48 1.76-9.92 5.92-9.6 13.12s0 18.56 0 28-3.04 9.92-10.24 9.92c-25.12-0.32-49.76-0.16-74.24-0.16z m-281.28 0h-71.84c-8.16 0-11.36-2.88-11.04-11.2s0-20.48 0-30.88a7.04 7.04 0 0 0-6.56-8A24.96 24.96 0 0 1 120 274.88a24.8 24.8 0 0 1 20.8-26.56 8.16 8.16 0 0 0 7.2-9.76 149.92 149.92 0 0 1 0-16.96c1.12-11.52 0-20.48-13.92-24.48A22.4 22.4 0 0 1 120.16 172a23.36 23.36 0 0 1 17.12-23.36 14.88 14.88 0 0 0 12-15.2A81.6 81.6 0 0 1 224 64a83.52 83.52 0 0 1 88.64 60.64 21.44 21.44 0 0 1 1.6 6.88c0 9.6 3.68 14.24 13.12 17.44a23.04 23.04 0 0 1 16 24.96 24.64 24.64 0 0 1-17.92 24.96c-9.12 2.4-10.72 7.36-9.92 15.04a100.16 100.16 0 0 1 0 12c0 11.36-1.6 21.6 14.24 25.12 10.08 2.24 14.72 14.72 13.44 26.4a23.36 23.36 0 0 1-18.4 22.24c-8.32 1.92-9.6 6.24-9.28 13.44s0 17.28 0 25.92-2.72 11.84-11.52 11.68c-24.8-0.16-49.12 0.16-73.28 0.16z m561.28 0h-71.84c-8.16 0-11.52-2.88-11.2-11.04s0-19.36 0-28.96a8.8 8.8 0 0 0-7.84-10.4 25.12 25.12 0 0 1-20-26.24 25.12 25.12 0 0 1 20.48-25.92 8.32 8.32 0 0 0 7.36-9.76V209.6c0-5.6-2.08-8-7.52-9.6a26.56 26.56 0 0 1-20.32-26.4 24.96 24.96 0 0 1 20-26.24 10.24 10.24 0 0 0 8.32-10.24A82.88 82.88 0 0 1 780.96 64a83.84 83.84 0 0 1 89.76 51.84 107.84 107.84 0 0 1 4.96 22.4 8.32 8.32 0 0 0 6.88 8A26.4 26.4 0 0 1 904 172.8a26.24 26.24 0 0 1-20.96 26.88c-4.96 1.6-7.2 3.68-7.04 8.96v30.88a7.04 7.04 0 0 0 6.56 8A24.96 24.96 0 0 1 904 273.6a24.96 24.96 0 0 1-21.76 26.72 7.04 7.04 0 0 0-6.24 8.32v24.96c0 16 0 16-16 16z" p-id="6968"></path><path d="M468.16 698.08h-13.92c-9.92 0-10.88-1.92-6.24-10.4l29.76-51.84c6.4-11.2 12.96-22.4 19.52-33.6 1.28-1.92 2.08-4.8 4.8-4.64s3.36 3.68 4 6.08c3.04 12 5.6 24 8.64 35.84a27.36 27.36 0 0 0 30.72 23.84h26.88c6.24 0 7.84 2.88 4.8 8.16l-50.88 88c-1.12 1.92-2.08 4.64-4.96 4s-2.88-3.52-3.36-5.6c-2.72-11.36-4.96-22.72-8-33.92-5.92-21.44-11.84-25.76-33.76-25.92z" p-id="6969"></path></svg>