<?xml version="1.0" standalone="no"?><!DOCTYPE svg PUBLIC "-//W3C//DTD SVG 1.1//EN" "http://www.w3.org/Graphics/SVG/1.1/DTD/svg11.dtd"><svg t="1606290957859" class="icon" viewBox="0 0 1024 1024" version="1.1" xmlns="http://www.w3.org/2000/svg" p-id="5592" xmlns:xlink="http://www.w3.org/1999/xlink" width="200" height="200"><defs><style type="text/css"></style></defs><path d="M840.406309 938.666667H390.090118a42.666667 42.666667 0 0 0 0 85.333333h450.316191a42.666667 42.666667 0 0 0 0-85.333333zM861.130118 0H368.39107a41.935238 41.935238 0 0 0-41.203809 42.666667v693.394285H183.583451V85.333333a20.967619 20.967619 0 0 0-20.723809-21.211428H142.379642A20.967619 20.967619 0 0 0 121.899642 85.333333v714.605715h205.287619v96.060952H902.090118v-853.333333A41.691429 41.691429 0 0 0 861.130118 0zM590.989166 818.468571L609.51869 658.285714h-107.276191l136.777143-209.92-18.773333 161.158096h107.27619zM819.926309 341.333333H409.35107V85.333333h410.575239z" fill="#80f4e7" p-id="5593"></path></svg>