<?xml version="1.0" standalone="no"?><!DOCTYPE svg PUBLIC "-//W3C//DTD SVG 1.1//EN" "http://www.w3.org/Graphics/SVG/1.1/DTD/svg11.dtd"><svg t="1606548831002" class="icon" viewBox="0 0 1024 1024" version="1.1" xmlns="http://www.w3.org/2000/svg" p-id="6959" xmlns:xlink="http://www.w3.org/1999/xlink" width="200" height="200"><defs><style type="text/css"></style></defs><path d="M122.88 788.48v-49.5616 19.63008C123.74016 775.2704 135.99744 788.48 151.06048 788.48H122.88z m0-81.92h43.9808-17.41824c-14.848 0.9728-26.56256 14.78656-26.56256 31.744V706.56z m798.72 0.36864v49.5616-19.63008c-0.86016-16.73216-13.11744-29.93152-28.18048-29.93152H921.6zM915.79392 800.68608h-43.90912 17.38752a28.11904 28.11904 0 0 0 26.5216-28.07808v28.07808zM1003.52 969.8304A43.97056 43.97056 0 0 1 959.488 1013.76H74.752C50.4832 1013.76 30.72 994.1504 30.72 969.82016a43.97056 43.97056 0 0 1 44.032-43.95008h884.736c24.38144 0.1024 44.032 19.72224 44.032 43.95008zM524.73856 10.24C375.27552 10.24 254.16704 131.13344 254.16704 280.33024c0 108.89216 64.53248 202.78272 157.62432 245.44256l37.7856-79.3088c-63.34464-28.6208-107.47904-92.28288-107.47904-166.23616 0-100.64896 81.8176-182.31296 182.64064-182.31296 100.83328 0 182.65088 81.77664 182.65088 182.41536 0 73.20576-43.27424 136.33536-105.55392 165.2736l37.79584 74.81344-1.60768 5.25312C730.90048 482.89792 795.32032 389.12 795.32032 280.33024 795.32032 131.13344 674.21184 10.24 524.73856 10.24z" p-id="6960"></path><path d="M30.72 704.16384v109.44512c2.46784 36.57728 32.64512 65.65888 70.11328 67.03104h836.00384c34.89792-2.85696 62.8224-29.71648 66.68288-63.75424V698.14272c-4.83328-32.88064-32.31744-58.5728-66.3552-61.22496H734.33088l-74.61888-170.4448c-9.66656-21.98528-35.5328-32.03072-57.76384-22.6304-22.33344 9.5232-32.53248 35.00032-22.97856 56.89344l86.00576 196.4544c6.32832 14.4896 19.7632 23.78752 34.57024 25.8048 2.2528 0.3072 4.5056 0.52224 6.7584 0.52224h209.17248v70.52288H118.66112v-70.52288h225.26976c4.608 0 9.0112-0.73728 13.2096-2.00704 12.2368-3.4816 22.86592-12.05248 28.23168-24.53504l85.79072-195.81952c9.66656-21.99552-0.64512-47.47264-22.97856-56.8832-22.3232-9.5232-48.20992 0.63488-57.76384 22.6304L316.0064 636.91776H98.68288c-36.5056 2.43712-65.59744 31.19104-67.96288 67.24608z" p-id="6961"></path></svg>