<?xml version="1.0" standalone="no"?><!DOCTYPE svg PUBLIC "-//W3C//DTD SVG 1.1//EN" "http://www.w3.org/Graphics/SVG/1.1/DTD/svg11.dtd"><svg t="1604470218673" class="icon" viewBox="0 0 1024 1024" version="1.1" xmlns="http://www.w3.org/2000/svg" p-id="4591" xmlns:xlink="http://www.w3.org/1999/xlink" width="200" height="200"><defs><style type="text/css"></style></defs><path d="M945.813554 0c13.736643 0 24.875212 10.465758 24.880587 23.38356V1000.616754c0 8.479575-4.882587 16.291714-12.761917 20.421755-7.876643 4.129146-17.513705 3.928467-25.187877-0.530365L514.456263 777.89912 91.135083 1020.568169c-7.679548 4.398808-17.284358 4.560067-25.125165 0.425546-7.841703-4.138104-12.699205-11.930534-12.704581-20.381441V23.382664c0-6.204917 2.618679-12.15361 7.288045-16.538083C65.257372 2.462795 71.586817 0 78.185925 0h867.627629zM421.392365 325.010069v0.005375l-147.861754 20.197784 107.000325 98.029803c6.280171 5.756973 9.139844 14.043933 7.658942 22.16784l-25.258653 138.430745 132.252706-65.353201c7.760178-3.834399 17.028134-3.834399 24.794582 0l132.257185 65.358577-25.264028-138.432538c-1.480902-8.123908 1.385042-16.410867 7.659838-22.160673l106.998533-98.045928-147.866233-20.197784c-8.67667-1.181676-16.174353-6.307048-20.057129-13.697224l-66.125457-125.946553-66.131728 125.946553c-3.882776 7.38928-11.379563 12.510173-20.057129 13.69812z" p-id="4592" fill="#3B9AFE"></path></svg>