<?xml version="1.0" standalone="no"?><!DOCTYPE svg PUBLIC "-//W3C//DTD SVG 1.1//EN" "http://www.w3.org/Graphics/SVG/1.1/DTD/svg11.dtd"><svg t="1604470299525" class="icon" viewBox="0 0 1024 1024" version="1.1" xmlns="http://www.w3.org/2000/svg" p-id="5013" xmlns:xlink="http://www.w3.org/1999/xlink" width="200" height="200"><defs><style type="text/css"></style></defs><path d="M512 0C229.232 0 0 229.232 0 512s229.232 512 512 512 512-229.232 512-512S794.768 0 512 0z m260.72 640.183a32.163 32.163 0 0 1-42.76 15.131L498.405 544.828A36.905 36.905 0 0 1 478.69 513.9v-334.46a32.163 32.163 0 0 1 32.072-32.072 32.163 32.163 0 0 1 32.072 32.072v315.561l214.81 102.423a32.163 32.163 0 0 1 15.074 42.758z" fill="#3B9AFE" p-id="5014"></path></svg>