<?xml version="1.0" standalone="no"?><!DOCTYPE svg PUBLIC "-//W3C//DTD SVG 1.1//EN" "http://www.w3.org/Graphics/SVG/1.1/DTD/svg11.dtd"><svg t="1605497488045" class="icon" viewBox="0 0 1024 1024" version="1.1" xmlns="http://www.w3.org/2000/svg" p-id="4882" xmlns:xlink="http://www.w3.org/1999/xlink" width="200" height="200"><defs><style type="text/css"></style></defs><path d="M378.88 0h262.144c33.792 13.312 23.552 53.248 24.576 81.92-2.048 67.584 3.072 136.192-3.072 203.776-13.312 35.84-61.44 16.384-90.112 23.552-39.936 2.048-27.648 52.224-29.696 78.848 4.096 29.696-13.312 86.016 30.72 89.088 105.472 3.072 210.944-1.024 317.44 1.024 15.36-1.024 33.792 8.192 34.816 25.6 6.144 79.872-4.096 161.792 4.096 241.664 18.432 35.84 72.704 5.12 94.208 39.936v210.944c-8.192 15.36-22.528 27.648-40.96 25.6-61.44 1.024-123.904 2.048-185.344-1.024-15.36 1.024-29.696-11.264-29.696-27.648-3.072-58.368-1.024-116.736-1.024-175.104 1.024-17.408-1.024-47.104 22.528-49.152 23.552-7.168 58.368 3.072 70.656-22.528 5.12-54.272 2.048-109.568 2.048-164.864 3.072-19.456-12.288-38.912-32.768-37.888-84.992-1.024-171.008-2.048-256 0-20.48-1.024-31.744 19.456-28.672 37.888 0 54.272-3.072 108.544 2.048 162.816 13.312 38.912 77.824 3.072 90.112 43.008 6.144 47.104 1.024 95.232 3.072 142.336-2.048 31.744 9.216 70.656-21.504 92.16H406.528c-10.24-9.216-24.576-16.384-23.552-32.768-1.024-66.56-3.072-133.12 1.024-199.68 10.24-45.056 79.872-5.12 93.184-47.104 5.12-56.32 3.072-113.664 1.024-171.008 1.024-24.576-26.624-31.744-47.104-29.696-81.92 1.024-163.84-2.048-245.76 2.048-23.552 2.048-26.624 29.696-25.6 48.128 1.024 51.2-3.072 102.4 3.072 152.576 15.36 37.888 78.848 2.048 91.136 43.008 5.12 51.2 1.024 102.4 2.048 153.6-1.024 28.672 8.192 66.56-23.552 80.896h-215.04c3.072-14.336-3.072-19.456-16.384-17.408V785.408c23.552-30.72 75.776-3.072 93.184-38.912 7.168-79.872-2.048-161.792 4.096-241.664 1.024-17.408 19.456-25.6 34.816-24.576 105.472-3.072 210.944 1.024 317.44-2.048 20.48 1.024 30.72-20.48 28.672-37.888 0-38.912 5.12-78.848-4.096-116.736-27.648-36.864-96.256 8.192-115.712-36.864-6.144-89.088-1.024-178.176-2.048-267.264 7.168-6.144 14.336-13.312 21.504-19.456z" p-id="4883"></path></svg>