<?xml version="1.0" standalone="no"?><!DOCTYPE svg PUBLIC "-//W3C//DTD SVG 1.1//EN" "http://www.w3.org/Graphics/SVG/1.1/DTD/svg11.dtd"><svg t="1605497528498" class="icon" viewBox="0 0 1024 1024" version="1.1" xmlns="http://www.w3.org/2000/svg" p-id="5008" xmlns:xlink="http://www.w3.org/1999/xlink" width="200" height="200"><defs><style type="text/css"></style></defs><path d="M379.954037 871.724811a314.679548 314.679548 0 0 1 0-141.133102 149.94548 149.94548 0 0 1 17.793575-63.138493 25.998203 25.998203 0 0 0-12.762754-21.946535s-44.602112 23.972369-45.851376 23.972369a8.204628 8.204628 0 0 0-3.140043 0.337639c-27.416287 7.428058-53.583309 11.817365-75.259733 15.869033h-1.249264a246.847873 246.847873 0 0 0-133.806336 49.970572C69.562504 786.639783 40.896953 816.689654 38.364661 936.21386a12.155004 12.155004 0 0 0 4.490598 10.466809 15.632686 15.632686 0 0 0 10.12917 4.389307h350.53681a801.656278 801.656278 0 0 1-23.63473-79.345165z m463.882222-158.69033a931.88364 931.88364 0 0 0-124.92643-29.036954l-2.532293-0.675278a78.87247 78.87247 0 0 1-48.451196-17.557228c-1.890778-2.025834-7.022891-9.453892-11.51349-15.531394a27.01112 27.01112 0 0 0-36.971471 21.946535 190.698507 190.698507 0 0 1 12.762755 42.542514 341.353029 341.353029 0 0 1 6.381377 142.821297c-2.532292 30.725149-10.871976 61.450298-14.653533 90.824891h343.547683a14.957408 14.957408 0 0 0 15.295046-12.155004c7.630641-61.787937-19.718118-189.07784-138.904684-223.179379z m-334.566485 310.290241a3.37639 3.37639 0 0 1-2.532293-1.012917l-81.573582-77.994609a15.159991 15.159991 0 0 1-1.890779-15.869033l66.177244-149.236438-44.534584-65.164327a15.66645 15.66645 0 0 1-1.350556-12.155004 9.285072 9.285072 0 0 1 4.490599-5.739863c0.641514 0 1.890778-0.337639 3.781557-0.337639a239.250995 239.250995 0 0 1 58.61413-12.492643 243.10008 243.10008 0 0 1 56.723352 12.492643c1.249264 0 2.59982 0.337639 3.140043 0.337639a11.074559 11.074559 0 0 1 4.490599 6.415141 13.843199 13.843199 0 0 1-1.890779 12.155004l-43.89307 65.164327 66.278536 148.56116a15.328811 15.328811 0 0 1-2.532293 16.206672l-83.498124 79.345165c1.249264-1.350556 0.641514-0.675278 0-0.675278z m278.484647-730.313157a78.43354 78.43354 0 0 0-24.816467-30.049871c5.132113-44.230709 9.52142-129.315737-27.416286-174.897002A110.981939 110.981939 0 0 0 626.531798 48.898568 119.38915 119.38915 0 0 0 551.373357 2.979664c-4.490599 0-10.12917-0.675278-16.544311-0.675278a119.422914 119.422914 0 0 0-78.399776 11.142087 130.092307 130.092307 0 0 1-22.925688 1.012917c-10.871976-0.675278-94.336337 6.75278-130.024779 56.723352a197.383759 197.383759 0 0 0-33.088622 194.817703 51.152308 51.152308 0 0 0-33.088622 23.972369c-15.362574 27.01112-1.958306 110.407953 10.804448 140.120185a100.278783 100.278783 0 0 0 46.492891 41.529597c44.602112 102.642256 124.92643 164.092554 218.587488 164.092554 70.12762 0 157.981288-19.245423 216.08896-164.767832a86.739459 86.739459 0 0 0 43.89307-57.39863c1.249264-5.064585 3.140043-13.167921 5.739863-22.284174 11.51349-42.880153 19.718118-74.955858 8.91367-98.252949z m-73.909177 80.695721c-2.532292 9.791531-5.030821 18.907784-6.31385 25.660564a30.657621 30.657621 0 0 1-19.144131 19.583062 36.836415 36.836415 0 0 0-17.827339 19.583062c-45.311154 123.575874-104.66809 133.367405-156.799552 133.367405-26.167022 0-112.771426-9.453892-160.581108-133.705044a32.345816 32.345816 0 0 0-21.676424-19.920701 94.842795 94.842795 0 0 1-21.676424-14.180838 307.25149 307.25149 0 0 1-12.762754-76.644053h10.12917A32.514636 32.514636 0 0 0 342.23976 300.439623a68.709536 68.709536 0 0 0 1.890779-16.544311 23.63473 23.63473 0 0 0-0.641514-6.077502c33.088622-21.946535 88.56271-20.25834 147.210604-17.894867 63.037201 2.701112 128.674223 5.739863 177.766933-22.959452a25.964439 25.964439 0 0 0 13.50556-25.998203c0-1.350556 7.630641 15.531394 15.295047 29.036954-1.249264 11.479726-2.532292 23.63473-3.849085 33.7639a30.38751 30.38751 0 0 0 24.276244 36.127373 11.007031 11.007031 0 0 1 7.630642 5.402224 259.002877 259.002877 0 0 1-11.51349 58.411547z" p-id="5009"></path></svg>