<?xml version="1.0" standalone="no"?><!DOCTYPE svg PUBLIC "-//W3C//DTD SVG 1.1//EN" "http://www.w3.org/Graphics/SVG/1.1/DTD/svg11.dtd"><svg t="1606548324682" class="icon" viewBox="0 0 1024 1024" version="1.1" xmlns="http://www.w3.org/2000/svg" p-id="6742" xmlns:xlink="http://www.w3.org/1999/xlink" width="200" height="200"><defs><style type="text/css"></style></defs><path d="M586.028 646.553c-1.827 3.982-2.785 8.293-2.785 12.783 0 8.239 3.326 16.083 9.279 21.828l64.020 62.374c23.236 22.666 63.966 22.785 87.318 0l210.001-204.581c24.017-23.537 24.017-61.685-0.041-85.162l-64.020-62.374c-9.552-9.488-24.735-12.218-37.459-5.243l-269.979-263.031c2.456-4.493 3.831-9.552 3.831-14.762 0-8.356-3.326-16.109-9.345-21.89l-64.020-62.315c-23.389-22.785-64.020-22.639-87.318 0l-209.911 204.581c-24.168 23.476-24.168 61.629 0 85.101l64.020 62.374c9.161 9.041 24.168 11.467 35.514 6.318l76.567 74.53-375.114 365.531c-8.836 8.627-13.715 20.005-13.715 32.159 0 12.097 4.879 23.537 13.715 32.011l63.124 61.566c8.836 8.538 20.51 13.295 32.911 13.295s24.168-4.731 32.911-13.354l375.114-365.561 65.401 63.808zM861.58 469.311c1.735-1.706 4.162-2.664 6.618-2.664 2.486 0 4.879 0.959 6.618 2.664l21.29 20.813c1.768 1.706 2.724 3.982 2.724 6.379s-0.988 4.671-2.724 6.467l-189.28 184.456c-3.502 3.414-9.731 3.414-13.236 0l-21.29-20.813c-1.768-1.706-2.724-3.982-2.724-6.408 0-2.396 0.959-4.671 2.724-6.437l189.28-184.456zM308.569 299.346c-3.502 3.414-9.79 3.414-13.173 0l-22.129-21.649c-3.621-3.563-3.621-9.37 0-12.906l189.28-184.456c1.768-1.706 4.162-2.664 6.676-2.664 2.456 0 4.879 0.959 6.557 2.664l22.221 21.649c1.676 1.706 2.664 3.982 2.664 6.379 0 2.426-0.959 4.76-2.724 6.467l-189.372 184.518zM129.738 871.432c-9.227 8.86-25.063 8.927-34.286-0.041-4.551-4.434-7.16-10.308-7.16-16.586 0-6.318 2.545-12.218 7.16-16.712l390.956-380.985-122.385-119.265 171.939-167.505 267.971 261.145-172 167.505-111.3-108.518-390.893 380.985zM889.038 858.38h-361.517c-72.734 0-131.874 57.642-131.874 128.457v32.639h625.358v-32.639c-0.095-70.789-59.171-128.457-131.964-128.457zM471.943 954.263c11.558-18.715 32.341-30.542 55.514-30.542h361.61c23.236 0 44.021 11.829 55.514 30.542h-472.641z" p-id="6743"></path></svg>