<?xml version="1.0" standalone="no"?><!DOCTYPE svg PUBLIC "-//W3C//DTD SVG 1.1//EN" "http://www.w3.org/Graphics/SVG/1.1/DTD/svg11.dtd"><svg t="1605513767103" class="icon" viewBox="0 0 1024 1024" version="1.1" xmlns="http://www.w3.org/2000/svg" p-id="4811" xmlns:xlink="http://www.w3.org/1999/xlink" width="200" height="200"><defs><style type="text/css"></style></defs><path d="M512 279.893333c-71.68 0-129.706667 58.026667-129.706667 129.706667 0 71.68 58.026667 129.706667 129.706667 129.706667 71.68 0 129.706667-58.026667 129.706667-129.706667 0-71.68-58.026667-129.706667-129.706667-129.706667m0 320.853334c-105.813333 0-191.146667-85.333333-191.146667-191.146667 0-105.813333 85.333333-191.146667 191.146667-191.146667 105.813333 0 191.146667 85.333333 191.146667 191.146667 0 105.813333-85.333333 191.146667-191.146667 191.146667m0-539.306667C320.853333 61.44 163.84 218.453333 163.84 409.6c0 75.093333 58.026667 194.56 163.84 337.92 85.333333 116.053333 177.493333 211.626667 180.906667 215.04h6.826666l116.053334-133.12c75.093333-92.16 133.12-177.493333 170.666666-249.173333 37.546667-68.266667 54.613333-126.293333 54.613334-170.666667 3.413333-191.146667-153.6-348.16-344.746667-348.16M512 1024c-17.066667 0-34.133333-6.826667-47.786667-20.48-10.24-10.24-98.986667-102.4-184.32-218.453333C163.84 628.053333 102.4 501.76 102.4 409.6 102.4 184.32 286.72 0 512 0s409.6 184.32 409.6 409.6c0 54.613333-20.48 122.88-61.44 197.973333C819.2 682.666667 761.173333 768 679.253333 866.986667L563.2 1000.106667c-13.653333 17.066667-30.72 23.893333-51.2 23.893333" p-id="4812"></path></svg>