<?xml version="1.0" standalone="no"?><!DOCTYPE svg PUBLIC "-//W3C//DTD SVG 1.1//EN" "http://www.w3.org/Graphics/SVG/1.1/DTD/svg11.dtd"><svg t="1603439042111" class="icon" viewBox="0 0 1024 1024" version="1.1" xmlns="http://www.w3.org/2000/svg" p-id="10959" xmlns:xlink="http://www.w3.org/1999/xlink" width="128" height="128"><defs><style type="text/css"></style></defs><path d="M128.47 829.62h767.7v62.94h-767.7z" p-id="10960"></path><path d="M480.15 99.87m32 0l0 0q32 0 32 32l0 89.37q0 32-32 32l0 0q-32 0-32-32l0-89.37q0-32 32-32Z" p-id="10961"></path><path d="M749.79343 165.575736m22.627417 22.627417l0 0q22.627417 22.627417 0 45.254834l-63.194133 63.194133q-22.627417 22.627417-45.254834 0l0 0q-22.627417-22.627417 0-45.254834l63.194133-63.194133q22.627417-22.627417 45.254834 0Z" p-id="10962"></path><path d="M378.980436 274.018531m-22.627417 22.627417l0 0q-22.627417 22.627417-45.254834 0l-63.194133-63.194133q-22.627417-22.627417 0-45.254834l0 0q22.627417-22.627417 45.254834 0l63.194133 63.194133q22.627417 22.627417 0 45.254834Z"  p-id="10963"></path><path d="M915.278056 349.03266m10.687084 30.162663l0 0q10.687084 30.162663-19.475578 40.849747l-84.238663 29.847022q-30.162663 10.687084-40.849747-19.475579l0 0q-10.687084-30.162663 19.475579-40.849747l84.238662-29.847022q30.162663-10.687084 40.849747 19.475579Z" p-id="10964"></path><path d="M254.754773 400.287974m-10.687084 30.162663l0 0q-10.687084 30.162663-40.849747 19.475579l-84.238662-29.847022q-30.162663-10.687084-19.475579-40.849747l0 0q10.687084-30.162663 40.849747-19.475579l84.238662 29.847022q30.162663 10.687084 19.475579 40.849747Z" p-id="10965"></path><path d="M512.2 365.47c-138.78 0-252.32 113.54-252.32 252.32v217.98H764.5V617.79C764.51 479 651 365.47 512.2 365.47zM483 745.37c-2.49 0.5 24-99.4 24-99.4l-89 0.92 115.42-141.27L521.43 612l92.4 1S485.47 744.87 483 745.37z" p-id="10966"></path></svg>
