<?xml version="1.0" standalone="no"?><!DOCTYPE svg PUBLIC "-//W3C//DTD SVG 1.1//EN" "http://www.w3.org/Graphics/SVG/1.1/DTD/svg11.dtd"><svg t="1606548837533" class="icon" viewBox="0 0 1475 1024" version="1.1" xmlns="http://www.w3.org/2000/svg" p-id="7241" xmlns:xlink="http://www.w3.org/1999/xlink" width="288.0859375" height="200"><defs><style type="text/css"></style></defs><path d="M1305.8048 241.41156503l-557.6992237-173.71409066c-11.33287348-3.61297541-24.36968297-5.69677748-37.89315793-5.69677748s-26.55907082 2.08380208-38.8058074 5.94557156l-556.82541038 173.46529658c-31.94273185 9.91778133-52.58171733 36.73899615-52.58171734 68.29336652s20.61228563 58.42777125 52.56836742 68.39531142l128.34133333 39.94176473c-0.66506903 2.38356859-1.08013037 5.13486697-1.14809363 7.96990578l0.31797096 369.92280652c0 49.1313683 40.40779852 91.57685097 105.35640178 110.81409422l30.45239467 9.07552237c104.03233185 30.77643378 218.15235318 46.17618015 332.29907437 46.17618016s228.30436503-15.40096 332.35004682-46.20166638l30.34802251-9.07552237c65.02627555-19.23845689 105.43286045-61.68272592 105.43286044-110.81409422v-373.78336237c-0.40413867-2.88722489-1.10804385-5.49167408-2.0935111-7.95291496l129.61928533-36.07149986c31.916032-9.96875378 52.52953125-36.81788208 52.52953126-68.39531141s-20.63777185-58.37558518-52.56715378-68.29336651zM1106.30593422 795.93472c0 12.8329197-18.49935645 31.29465363-53.87666014 41.74279111l-30.38685867 9.07430874c-195.31062992 57.81610192-428.50349511 57.81610192-623.67213038 0l-30.49001718-9.07430874c-35.31419497-10.44813748-53.80020148-28.90865778-53.80020148-41.74279111v-355.72455348l358.27803022 111.48765866c11.32316445 3.5923437 24.34783763 5.66036859 37.85432178 5.6603686s26.53115733-2.07045215 38.76939852-5.90916267l357.3229037-111.24007822zM726.71414045 482.96512475c-4.93825897 1.572864-10.61804563 2.48065897-16.50900386 2.48065895s-11.57074489-0.90658133-16.90707437-2.58624473l-557.40552533-172.65944652 557.73805986-173.71409067c4.87150933-1.58742755 10.47605097-2.5025043 16.2941914-2.5025043 0.06068148 0 0.1189357 0 0.17840355 0 5.88731733 0.00485452 11.56831763 0.92114489 16.90343348 2.61901274l557.47227497 172.71527348z" p-id="7242"></path><path d="M1250.34556682 422.12587141c-0.00970903 0-0.01699082 0-0.02548623 0-19.87561245 0-35.98775941 16.11214697-35.98775941 35.98775941 0 0.00970903 0 0.01941808 0 0.02669985v288.07683792c0 19.890176 16.121856 36.01324563 36.01324564 36.01324563s36.01324563-16.121856 36.01324563-36.01324563c0 0 0 0 0 0v-288.07926518c0-0.00970903 0-0.01699082 0-0.02669986 0-19.87561245-16.11214697-35.98775941-35.98775942-35.9877594-0.00970903 0-0.01941808 0-0.02669985 0z" p-id="7243"></path></svg>