<?xml version="1.0" standalone="no"?><!DOCTYPE svg PUBLIC "-//W3C//DTD SVG 1.1//EN" "http://www.w3.org/Graphics/SVG/1.1/DTD/svg11.dtd"><svg t="1606558507991" class="icon" viewBox="0 0 1024 1024" version="1.1" xmlns="http://www.w3.org/2000/svg" p-id="6343" xmlns:xlink="http://www.w3.org/1999/xlink" width="200" height="200"><defs><style type="text/css"></style></defs><path d="M959.8 151.6H64.2C28.5 151.6 0 180.2 0 215.9v592.3c0 35.7 28.5 64.2 64.2 64.2h895.6c35.7 0 64.2-28.5 64.2-64.2V215.9c0-35.7-28.5-64.3-64.2-64.3z m-3.6 653H67.8V219.4h888.4v585.2z m-471-157c14.3 14.3 32.1 17.8 42.8 7.1l339-306.8c10.7-10.7 14.3-32.1 3.6-46.4-10.7-14.3-35.7-14.3-46.4-3.6l-314 285.4-310.4-281.8c-10.7-10.7-35.7-14.3-50 0-10.7 14.3-7.1 35.7 3.6 50l331.8 296.1z" p-id="6344"></path></svg>