<?xml version="1.0" standalone="no"?><!DOCTYPE svg PUBLIC "-//W3C//DTD SVG 1.1//EN" "http://www.w3.org/Graphics/SVG/1.1/DTD/svg11.dtd"><svg t="1606548318185" class="icon" viewBox="0 0 1024 1024" version="1.1" xmlns="http://www.w3.org/2000/svg" p-id="6462" xmlns:xlink="http://www.w3.org/1999/xlink" width="200" height="200"><defs><style type="text/css"></style></defs><path d="M819.2 955.733333h-125.155556v-238.933333h45.511112c34.133333 0 56.888889-28.444444 56.888888-62.577778V506.311111c0-34.133333-28.444444-62.577778-56.888888-62.577778h-45.511112V364.088889H796.444444c17.066667 0 34.133333-17.066667 34.133334-34.133333s-11.377778-34.133333-34.133334-34.133334h-68.266666c-11.377778-56.888889-39.822222-102.4-85.333334-142.222222-17.066667-17.066667-39.822222-28.444444-56.888888-39.822222V34.133333c0-17.066667-11.377778-34.133333-34.133334-34.133333H386.844444c-17.066667 0-28.444444 17.066667-28.444444 34.133333V113.777778c-22.755556 11.377778-39.822222 22.755556-56.888889 39.822222-45.511111 39.822222-73.955556 85.333333-85.333333 142.222222H147.911111c-22.755556 0-34.133333 17.066667-34.133333 34.133334s11.377778 34.133333 34.133333 34.133333h102.4v79.644444h-51.2c-28.444444 0-56.888889 28.444444-56.888889 62.577778v147.911111c0 34.133333 28.444444 62.577778 62.577778 62.577778h45.511111v238.933333H170.666667c-17.066667 0-34.133333 17.066667-34.133334 34.133334 5.688889 17.066667 17.066667 34.133333 34.133334 34.133333h648.533333c17.066667 0 34.133333-17.066667 34.133333-34.133333s-11.377778-34.133333-34.133333-34.133334zM694.044444 512h45.511112v136.533333h-45.511112V512zM420.977778 68.266667h102.4v22.755555c-17.066667-5.688889-34.133333-5.688889-51.2-5.688889-17.066667 0-34.133333 0-51.2 5.688889v-22.755555z m-170.666667 580.266666h-45.511111V512h45.511111v136.533333z m381.155556 307.2H312.888889V364.088889h324.266667v591.644444zM278.755556 295.822222c11.377778-34.133333 34.133333-68.266667 62.577777-91.022222 34.133333-34.133333 79.644444-51.2 130.844445-51.2s96.711111 17.066667 130.844444 51.2c28.444444 22.755556 45.511111 56.888889 56.888889 91.022222H278.755556zM534.755556 910.222222c17.066667 0 34.133333-17.066667 34.133333-34.133333V438.044444c0-17.066667-11.377778-34.133333-34.133333-34.133333-17.066667 0-34.133333 17.066667-34.133334 34.133333v438.044445c0 17.066667 17.066667 34.133333 34.133334 34.133333z m-125.155556 0c17.066667 0 34.133333-17.066667 34.133333-34.133333V438.044444c0-17.066667-11.377778-34.133333-34.133333-34.133333-17.066667 0-34.133333 17.066667-34.133333 34.133333v438.044445c5.688889 17.066667 17.066667 34.133333 34.133333 34.133333z" p-id="6463"></path></svg>