<?xml version="1.0" standalone="no"?><!DOCTYPE svg PUBLIC "-//W3C//DTD SVG 1.1//EN" "http://www.w3.org/Graphics/SVG/1.1/DTD/svg11.dtd"><svg t="1604630309738" class="icon" viewBox="0 0 1024 1024" version="1.1" xmlns="http://www.w3.org/2000/svg" p-id="5806" xmlns:xlink="http://www.w3.org/1999/xlink" width="128" height="128"><defs><style type="text/css"></style></defs><path d="M228.5 416.4c6.9 11.6 19.4 19.3 33.9 19.3 21.7 0 39.4-17.6 39.4-39.4 0-8.5-2.7-16.3-7.3-22.8-16-27.4-25.1-59.3-25.1-93.3 0-102.6 82.4-185.8 185-185.8 1.6 0 3.9 0.1 3.9 0.1s1.6-0.1 3.1-0.1c102.6 0 184.2 83.2 184.2 185.8 0 34-9.1 65.9-25.1 93.3-4.6 6.4-7.3 14.3-7.3 22.8 0 21.7 17.6 39.4 39.4 39.4 14.4 0 27-7.8 33.9-19.3l0.3 0.1c23-38 36.1-101.8 36.1-136.2C722.9 135.4 606.2 18 461.3 18c-1.6 0-3.1 0.1-3.1 0.1s-2.3-0.1-3.9-0.1c-144.9 0-261.9 117.4-261.9 262.3 0 34.4 12.9 98.2 35.9 136.2l0.2-0.1z" p-id="5807"></path><path d="M802.6 1006H430.2L199.4 765.3c-25.8-25.8-27.7-70.6-0.5-94.8 43.1-38.3 117 20.1 125.3 28.4 39.6 39.6 78.8 23.9 78.8-11.6V279.1c0-31.2 21.3-56.7 52.5-56.7S508 248 508 279.2v205.9c0-31.2 25.3-56.7 56.5-56.7s56.5 25.5 56.5 56.7v38.5c0-31.2 28.7-56.6 59.9-56.6h0.8c31.2 0 55.3 25.4 55.3 56.6v17.6c10-18 27.9-30.3 49.5-30.3 31.2 0 55.7 25.5 55.7 56.7 0 0-4.4 235.3-9.6 291.4-5.1 56.2-30 147-30 147z" p-id="5808"></path></svg>
