<?xml version="1.0" standalone="no"?><!DOCTYPE svg PUBLIC "-//W3C//DTD SVG 1.1//EN" "http://www.w3.org/Graphics/SVG/1.1/DTD/svg11.dtd"><svg t="1606289802674" class="icon" viewBox="0 0 1024 1024" version="1.1" xmlns="http://www.w3.org/2000/svg" p-id="6126" xmlns:xlink="http://www.w3.org/1999/xlink" width="200" height="200"><defs><style type="text/css"></style></defs><path d="M112.41517 296.367265v281.037925c0 28.103792 22.994012 51.097804 51.097804 51.097804h308.119761v395.497006h79.712574V628.502994h310.674651c28.103792 0 51.097804-22.994012 51.097804-51.097804V296.367265H112.41517z m164.023952 230.451098h-41.9002V358.706587h41.9002v168.111776z m171.177644 0h-41.900199V359.728543h41.900199v167.08982z m170.155689 0h-41.9002V359.728543h41.9002v167.08982z m171.177645 0H747.0499V359.728543h41.9002v167.08982zM862.530938 2.043912H163.512974c-28.103792 0-51.097804 22.994012-51.097804 51.097805v177.309381h801.213573V53.141717c0-28.103792-22.994012-51.097804-51.097805-51.097805zM402.139721 161.469062H229.429142v-50.075848h172.710579v50.075848z" p-id="6127"></path></svg>