<?xml version="1.0" standalone="no"?><!DOCTYPE svg PUBLIC "-//W3C//DTD SVG 1.1//EN" "http://www.w3.org/Graphics/SVG/1.1/DTD/svg11.dtd"><svg t="1602866228982" class="icon" viewBox="0 0 1024 1024" version="1.1" xmlns="http://www.w3.org/2000/svg" p-id="3168" xmlns:xlink="http://www.w3.org/1999/xlink" width="200" height="200"><defs><style type="text/css"></style></defs><path d="M988.452974 540.430396h-51.225288a426.275312 426.275312 0 0 1-382.56403 396.14704v51.875538a35.547026 35.547026 0 0 1-71.094052 0v-51.225288A426.275312 426.275312 0 0 1 86.700064 540.430396H35.547026a35.547026 35.547026 0 0 1 0-71.094052h51.947788A426.275312 426.275312 0 0 1 483.569604 86.700064V35.547026a35.547026 35.547026 0 0 1 71.094052 0v51.947788A426.925563 426.925563 0 0 1 936.577436 469.625344h51.875538a35.547026 35.547026 0 0 1 0 71.094052zM746.704297 469.625344h118.056586a355.39801 355.39801 0 0 0-310.097227-310.313977v118.056586a35.547026 35.547026 0 0 1-71.094052 0V157.721866A355.32576 355.32576 0 0 0 159.311367 469.625344h118.056586a35.547026 35.547026 0 0 1 0 71.094052H157.866366a355.18126 355.18126 0 0 0 325.703238 325.703239v-119.718338a35.547026 35.547026 0 0 1 71.094052 0v118.056586a355.39801 355.39801 0 0 0 311.469978-324.330487h-119.429337a35.547026 35.547026 0 1 1 0-71.094052zM512.036125 625.757708A113.721583 113.721583 0 1 1 592.450434 592.450434a113.793833 113.793833 0 0 1-80.414309 33.307274z" p-id="3169"></path></svg>