<?xml version="1.0" standalone="no"?><!DOCTYPE svg PUBLIC "-//W3C//DTD SVG 1.1//EN" "http://www.w3.org/Graphics/SVG/1.1/DTD/svg11.dtd"><svg t="1602867022164" class="icon" viewBox="0 0 1024 1024" version="1.1" xmlns="http://www.w3.org/2000/svg" p-id="3298" xmlns:xlink="http://www.w3.org/1999/xlink" width="200" height="200"><defs><style type="text/css"></style></defs><path d="M874.667 582.4a20.907 20.907 0 0 1-21.334-20.48V450.56H839.68v349.867a29.013 29.013 0 0 1-57.6 0V574.72H768V800a29.013 29.013 0 0 1-58.027 0V450.987h-11.52v-58.454a113.493 113.493 0 0 1 25.6-3.413h26.88l23.467 37.12 23.467-37.12h28.16s64.426 0 69.12 52.907V561.92a20.907 20.907 0 0 1-20.48 20.48zM778.24 373.333a48.64 48.64 0 1 1 50.773-48.64 49.92 49.92 0 0 1-50.773 49.067zM597.333 918.187a42.667 42.667 0 0 1-85.333 0V613.12a34.133 34.133 0 0 0 35.84-24.747l49.493-189.866v12.8l20.907-19.627h-20.907l22.614-85.333a80.213 80.213 0 0 1 62.72 72.533l-85.334 116.053z m-79.36-378.454a28.587 28.587 0 1 1-55.04-15.36l111.787-422.4a29.013 29.013 0 0 1 35.413-20.906 28.16 28.16 0 0 1 19.627 34.986zM314.88 291.413a160.427 160.427 0 0 1-176.64-69.973 399.787 399.787 0 0 1-31.147-90.027c0-4.266 5.547-6.826 8.534-4.266 50.773 64.426 125.866 12.8 235.946-57.6a133.547 133.547 0 0 1 196.267 44.8c-5.547 19.626-72.107 261.12-72.107 261.12a121.6 121.6 0 0 0-160.853-84.054z m-140.8 31.147a45.653 45.653 0 0 1 2.987-14.507 170.667 170.667 0 0 0 98.133 12.8 50.773 50.773 0 0 1-101.547 0z m2.56 64.427h27.733l23.467 37.12 23.467-37.12h26.88a117.76 117.76 0 0 1 25.6 2.986v58.454h-11.094v349.44a29.013 29.013 0 0 1-58.026 0v-225.28h-12.8v225.706a29.013 29.013 0 0 1-57.6 0V448h-14.08v111.36a21.333 21.333 0 0 1-42.667 0V439.893c4.267-53.76 69.12-52.906 69.12-52.906z m183.04-72.96a121.173 121.173 0 0 1 94.293 76.373l-42.666 162.133a34.56 34.56 0 0 0 24.746 42.667l55.04 14.507v308.48a42.667 42.667 0 0 1-85.333 0V541.013c-7.68-4.266-12.8-9.386-12.8-14.933l-74.667-147.2a73.813 73.813 0 0 1 41.387-64.853z m42.667 103.253v-24.747H384z" p-id="3299"></path></svg>