<?xml version="1.0" standalone="no"?><!DOCTYPE svg PUBLIC "-//W3C//DTD SVG 1.1//EN" "http://www.w3.org/Graphics/SVG/1.1/DTD/svg11.dtd"><svg t="1596508839765" class="icon" viewBox="0 0 1024 1024" version="1.1" xmlns="http://www.w3.org/2000/svg" p-id="14069" xmlns:xlink="http://www.w3.org/1999/xlink" width="128" height="128"><defs><style type="text/css"></style></defs><path d="M544 896h127.936a31.968 31.968 0 1 1 0 64H352.064a31.968 31.968 0 1 1 0-64H480V766.56C300.576 750.4 160 599.616 160 416c0-194.4 157.6-352 352-352s352 157.6 352 352c0 183.616-140.576 334.4-320 350.56V896z m-32-192a288 288 0 1 0 0-576 288 288 0 0 0 0 576z m0-96a192 192 0 1 1 0-384 192 192 0 0 1 0 384z m0-64a128 128 0 1 0 0-256 128 128 0 0 0 0 256z" p-id="14070"></path></svg>
