<?xml version="1.0" standalone="no"?><!DOCTYPE svg PUBLIC "-//W3C//DTD SVG 1.1//EN" "http://www.w3.org/Graphics/SVG/1.1/DTD/svg11.dtd"><svg t="1606561236842" class="icon" viewBox="0 0 1024 1024" version="1.1" xmlns="http://www.w3.org/2000/svg" p-id="6433" xmlns:xlink="http://www.w3.org/1999/xlink" width="200" height="200"><defs><style type="text/css"></style></defs><path d="M395.605333 902.570667a34.730667 34.730667 0 1 1 0 69.418666H141.013333C85.717333 971.989333 42.666667 923.349333 42.666667 865.28V106.709333C42.666667 48.682667 85.717333 0 141.013333 0h636.458667c55.296 0 98.346667 48.64 98.346667 106.709333v309.845334a34.730667 34.730667 0 1 1-69.461334 0V106.709333c0-21.504-13.952-37.290667-28.885333-37.290666H141.013333c-14.933333 0-28.928 15.786667-28.928 37.290666V865.28c0 21.504 13.952 37.290667 28.928 37.290667h254.592zM216.234667 242.986667h451.285333a34.730667 34.730667 0 1 1 0 69.418666H216.234667a34.730667 34.730667 0 0 1 0-69.418666z m0 173.568H424.533333a34.730667 34.730667 0 0 1 0 69.461333H216.234667a34.730667 34.730667 0 1 1 0-69.461333z m0 173.568h138.837333a34.730667 34.730667 0 0 1 0 69.461333H216.234667a34.730667 34.730667 0 0 1 0-69.461333z m485.973333 347.136a208.298667 208.298667 0 1 0 0-416.554667 208.298667 208.298667 0 0 0 0 416.554667z m0 69.461333a277.717333 277.717333 0 1 1 0-555.434667 277.717333 277.717333 0 0 1 0 555.434667z m114.346667-371.712a34.730667 34.730667 0 0 1 49.066666 49.066667l-173.568 173.610666a34.730667 34.730667 0 0 1-49.066666 0l-104.149334-104.149333a34.730667 34.730667 0 0 1 49.066667-49.066667l79.616 79.573334 149.034667-149.034667z" fill="#3b9afe" p-id="6434"></path></svg>