<?xml version="1.0" standalone="no"?><!DOCTYPE svg PUBLIC "-//W3C//DTD SVG 1.1//EN" "http://www.w3.org/Graphics/SVG/1.1/DTD/svg11.dtd"><svg t="1606289750208" class="icon" viewBox="0 0 1024 1024" version="1.1" xmlns="http://www.w3.org/2000/svg" p-id="5986" xmlns:xlink="http://www.w3.org/1999/xlink" width="200" height="200"><defs><style type="text/css"></style></defs><path d="M512 64C300.8 64 128 87.552 128 252.608l0 448c0 89.6 76.8 165.056 168 165.056L224 936.448 224 960l576 0 0-23.552-72-70.72c91.2 0 168-75.456 168-165.056l0-448C896 87.552 723.2 64 512 64zM296 771.392c-38.4 0-72-33.024-72-70.72 0-37.696 33.6-70.72 72-70.72 38.4 0 72 33.024 72 70.72C368 738.368 334.4 771.392 296 771.392zM464 488.448 224 488.448 224 252.608l240 0L464 488.448zM728 771.392c-38.4 0-72-33.024-72-70.72 0-37.696 33.6-70.72 72-70.72s72 33.024 72 70.72C800 738.368 766.4 771.392 728 771.392zM800 488.448 560 488.448 560 252.608l240 0L800 488.448z" p-id="5987"></path></svg>