<?xml version="1.0" standalone="no"?><!DOCTYPE svg PUBLIC "-//W3C//DTD SVG 1.1//EN" "http://www.w3.org/Graphics/SVG/1.1/DTD/svg11.dtd"><svg t="1606548891773" class="icon" viewBox="0 0 1024 1024" version="1.1" xmlns="http://www.w3.org/2000/svg" p-id="6252" xmlns:xlink="http://www.w3.org/1999/xlink" width="200" height="200"><defs><style type="text/css"></style></defs><path d="M967.826 376.32L647.68 56.174A192.146 192.146 0 0 0 512.512 0h-1.024c-50.395 0-99.694 20.48-135.168 56.174L56.174 376.32a192.146 192.146 0 0 0 0 271.36L376.32 967.826C411.867 1003.52 461.166 1024 511.488 1024h1.024c50.395 0 99.62-20.48 135.168-56.174L967.826 647.68a190.61 190.61 0 0 0 56.1-135.68c0-51.273-19.894-99.474-56.1-135.68z m-44.69 226.743l-320.146 320a128.366 128.366 0 0 1-90.697 37.668h-0.586c-33.792 0-66.779-13.677-90.624-37.668L100.937 602.99a128.95 128.95 0 0 1 0-181.98l320.146-320.146A127.854 127.854 0 0 1 512 63.195h0.366c33.865 0 66.852 13.678 90.697 37.669L923.136 421.01a129.17 129.17 0 0 1 0 181.98z" p-id="6253"></path><path d="M775.168 403.749H629.76V258.194a31.67 31.67 0 0 0-31.598-31.597H430.665a31.67 31.67 0 0 0-31.598 31.597v145.408H253.513A31.67 31.67 0 0 0 221.99 435.2v167.497c0 17.408 14.19 31.598 31.597 31.598h145.408v145.408c0 17.408 14.19 31.598 31.598 31.598h167.497a31.67 31.67 0 0 0 31.598-31.598V634.368H775.24a31.67 31.67 0 0 0 31.525-31.598V435.273a31.451 31.451 0 0 0-31.452-31.598zM430.665 571.246H285.111V466.798h145.408a31.67 31.67 0 0 0 31.598-31.598V289.865h104.301v145.408c0 17.408 14.19 31.598 31.598 31.598H743.57v104.375H598.016a31.67 31.67 0 0 0-31.598 31.597v145.408H462.263v-145.48a31.67 31.67 0 0 0-31.598-31.598z" p-id="6254"></path></svg>