<?xml version="1.0" standalone="no"?><!DOCTYPE svg PUBLIC "-//W3C//DTD SVG 1.1//EN" "http://www.w3.org/Graphics/SVG/1.1/DTD/svg11.dtd"><svg t="1606548805239" class="icon" viewBox="0 0 1024 1024" version="1.1" xmlns="http://www.w3.org/2000/svg" p-id="6252" xmlns:xlink="http://www.w3.org/1999/xlink" width="200" height="200"><defs><style type="text/css"></style></defs><path d="M835.071845 944.610775H197.698069V316.536909L517.384947 89.309128l275.857306 197.458072h137.438658L540.284724 8.939913C533.314792 3.979961 525.34487 0.99999 517.384947 0.99999c-7.979922 0-15.939844 1.979981-22.909776 6.949932l-485.995254 345.306628c-15.929844 10.909893-7.969922 35.709651 11.949883 35.709652h97.599047v615.183992c0.03 10.949893 8.929913 19.809807 19.919806 19.849806h756.882608c10.989893-0.04 19.889806-8.899913 19.919806-19.849806V802.722161h-79.669222l-0.01 141.888614zM528.144842 705.473111h158.628451v158.628451H528.144842V705.473111zM280.277263 864.101562h158.628451V705.473111H280.277263v158.628451z m0.98999-237.947677H439.895704V467.515434H281.267253v158.638451z m728.222889-141.508618h-17.659828c-8.099921 0-16.629838-6.309938-19.069814-14.029863l-10.1499-24.60976c-3.799963-7.11993-2.259978-17.609828 3.459966-23.329772l12.499878-12.499878c5.709944-5.709944 5.709944-15.099853 0-20.809796l-20.819797-20.769798c-5.709944-5.709944-15.059853-5.709944-20.769797 0l-12.499878 12.499878c-5.709944 5.709944-16.249841 7.289929-23.369772 3.449967l-24.56976-10.109902c-7.719925-2.389977-14.079863-10.959893-14.079862-19.069813v-17.659828c0-8.059921-6.609935-14.719856-14.709857-14.719856h-29.389713c-8.099921 0-14.719856 6.609935-14.719856 14.719856v17.659828c0 8.059921-6.309938 16.679837-14.029863 19.069813l-24.60976 10.109902c-7.11993 3.839963-17.609828 2.299978-23.329772-3.449967l-12.539877-12.499878c-5.719944-5.709944-15.059853-5.709944-20.769798 0l-20.769797 20.769798c-5.759944 5.709944-5.759944 15.059853 0 20.769797l12.499878 12.499878c5.709944 5.719944 7.289929 16.249841 3.449966 23.329772l-10.109901 24.649759c-2.429976 7.719925-10.959893 14.029863-19.069814 14.029863h-17.659827c-8.109921 0-14.719856 6.609935-14.719856 14.719856v29.389713c0 8.099921 6.609935 14.709856 14.719856 14.709857h17.659827c8.109921 0.04 16.639838 6.359938 19.019815 14.079862l10.149901 24.60976c3.789963 7.11993 2.259978 17.659828-3.449967 23.379772l-12.539877 12.499878c-5.719944 5.709944-5.719944 15.059853 0 20.809796l20.809796 20.769797c5.709944 5.709944 15.059853 5.709944 20.769798 0l12.499878-12.499877c5.669945-5.719944 16.209842-7.249929 23.329772-3.409967l24.649759 10.149901c7.719925 2.389977 14.029863 10.959893 14.029863 19.019814v17.619828c0 8.059921 6.609935 14.709856 14.719856 14.709856h29.389713c8.059921 0 14.709856-6.609935 14.709857-14.709856v-17.619828c0-8.099921 6.359938-16.629838 14.079862-19.019814l24.60976-10.149901c7.11993-3.839963 17.619828-2.299978 23.379771 3.409967l12.449879 12.499877c5.709944 5.709944 15.099853 5.709944 20.769797 0l20.819797-20.769797c5.709944-5.759944 5.709944-15.099853 0-20.809796l-12.499878-12.499878c-5.709944-5.719944-7.249929-16.249841-3.459966-23.379772l10.1499-24.60976c2.389977-7.719925 10.999893-14.029863 19.069814-14.029863h17.659828c8.059921 0 14.669857-6.609935 14.669857-14.719856v-29.429713c0.01-8.069921-6.599936-14.719856-14.659857-14.719856z m-102.878996 29.389713c0 40.599604-32.879679 73.489282-73.489282 73.489282-40.599604 0-73.489282-32.879679-73.489282-73.489282s32.879679-73.489282 73.489282-73.489282c40.599604 0 73.489282 32.929678 73.489282 73.489282z m0 0" p-id="6253"></path></svg>