<?xml version="1.0" standalone="no"?><!DOCTYPE svg PUBLIC "-//W3C//DTD SVG 1.1//EN" "http://www.w3.org/Graphics/SVG/1.1/DTD/svg11.dtd"><svg t="1605347712595" class="icon" viewBox="0 0 1024 1024" version="1.1" xmlns="http://www.w3.org/2000/svg" p-id="4329" xmlns:xlink="http://www.w3.org/1999/xlink" width="200" height="200"><defs><style type="text/css"></style></defs><path d="M0 0h1024v1024H0z" fill="#0e396a" p-id="4330"></path><path d="M607.078 667.7l24.576-15.258c9.677-5.786 17.613-10.138 25.55-13.722 55.807-25.395 104.96-7.424 169.983 68.608 40.243 47.053 52.173 88.78 36.66 125.952-11.572 27.802-33.895 46.95-73.575 70.656-2.56 1.536-25.446 14.848-31.283 18.432-92.416 57.037-304.18-73.472-456.5-296.5-152.729-223.59-192.255-462.028-98.61-519.884l12.339-7.834 13.414-8.704c47.36-30.566 77.67-42.803 113.613-36.71 35.84 6.144 66.406 32.666 92.16 81.05 54.477 102.246 42.496 150.784-27.546 194.867-5.069 3.277-22.937 14.029-24.576 15.104-17.203 10.598 11.879 81.766 79.463 180.736 68.403 100.045 125.593 154.726 144.281 143.206h0.051z" fill="#A9DAFF" p-id="4331"></path></svg>