<?xml version="1.0" standalone="no"?><!DOCTYPE svg PUBLIC "-//W3C//DTD SVG 1.1//EN" "http://www.w3.org/Graphics/SVG/1.1/DTD/svg11.dtd"><svg t="1605347869217" class="icon" viewBox="0 0 1024 1024" version="1.1" xmlns="http://www.w3.org/2000/svg" p-id="4329" xmlns:xlink="http://www.w3.org/1999/xlink" width="200" height="200"><defs><style type="text/css"></style></defs><path d="M906.8 271.6l-87.5 50.3v-35.4c0-56-45.3-101.3-101.3-101.4H207c-56 0-101.3 45.4-101.3 101.4v437.6c0 56 45.3 101.3 101.3 101.4h511.1c56 0 101.3-45.4 101.3-101.4v-35.9l87.5 50.3c26.7 16 48 5.4 48-24.1V295.7c-0.1-26.8-21.5-40-48.1-24.1z m-483.9 159c-7.8 36.6-35.7 65.7-72 74.9-50.1 10.3-99-21.9-109.3-72-2.5-12.4-2.5-25.1 0-37.5 7-36.4 35.5-64.9 72-71.9 47.6-12.5 96.3 15.9 108.7 63.5 3.8 14 4 28.8 0.6 43z" fill="#A9DAFF" p-id="4330"></path></svg>