<?xml version="1.0" standalone="no"?><!DOCTYPE svg PUBLIC "-//W3C//DTD SVG 1.1//EN" "http://www.w3.org/Graphics/SVG/1.1/DTD/svg11.dtd"><svg t="1606290120198" class="icon" viewBox="0 0 1024 1024" version="1.1" xmlns="http://www.w3.org/2000/svg" p-id="6406" xmlns:xlink="http://www.w3.org/1999/xlink" width="200" height="200"><defs><style type="text/css"></style></defs><path d="M1004.277819 18.436645c-25.596522-21.19712-61.291671-24.096726-107.985326-8.798805s-88.288003 41.594348-125.582935 78.789294L654.025414 205.311251 168.791352 89.227025c-8.098899-1.899742-15.297921-0.699905-21.897024 5.899198l-93.38731 93.38731c-5.099307 5.099307-7.299008 11.69841-6.599103 19.697324 1.499796 8.098899 5.799212 13.898111 12.398315 17.497622l370.749619 203.572337-188.97432 188.97432-141.680747-38.594755c-0.699905-0.699905-2.899606-0.699905-5.799212-0.699905-6.599103 0-12.398315 2.199701-16.797718 6.599103L6.713377 656.249973C1.214124 661.749226-0.485645 667.948383 0.114274 674.547487c0.799891 7.998913 4.499389 12.998234 9.498709 16.797717l183.875013 137.98125 137.881264 183.875013c3.999457 5.399266 10.198614 8.798804 17.497622 9.49871h1.499796c6.599103 0 12.398315-2.199701 16.797718-6.599104l70.090475-70.090475c6.599103-6.499117 7.998913-14.598016 5.899198-22.596929l-38.694741-141.580761 188.97432-188.974321L797.105971 963.50822c3.499524 6.299144 7.998913 10.198614 15.297922 11.69841 1.499796 0.699905 2.899606 0.699905 5.099307 0.699905 5.899198 0 10.098628-1.499796 13.898111-4.399402l93.38731-70.090475c8.298872-6.199158 10.898519-14.598016 8.698818-24.096726l-116.784131-507.930978 117.484036-117.484035c37.194946-37.194946 63.491372-78.789293 78.789293-125.482948 15.397908-46.693655 12.498302-82.388804-8.698818-107.985326z m0 0" fill="" p-id="6407"></path></svg>