<?xml version="1.0" standalone="no"?><!DOCTYPE svg PUBLIC "-//W3C//DTD SVG 1.1//EN" "http://www.w3.org/Graphics/SVG/1.1/DTD/svg11.dtd"><svg t="1606548307393" class="icon" viewBox="0 0 1260 1024" version="1.1" xmlns="http://www.w3.org/2000/svg" p-id="6182" xmlns:xlink="http://www.w3.org/1999/xlink" width="246.09375" height="200"><defs><style type="text/css"></style></defs><path d="M1006.355692 93.577846H257.102769a35.918769 35.918769 0 1 1 0-71.837538h749.252923a35.918769 35.918769 0 1 1 0 71.837538z m-23.315692 908.051692H280.418462a35.918769 35.918769 0 1 1 0-71.837538h702.621538a35.918769 35.918769 0 1 1 0 71.837538z m-170.771692-95.15323H451.190154a35.918769 35.918769 0 1 1 0-71.837539h360.448c20.164923 0 35.918769 16.384 35.918769 35.918769a35.367385 35.367385 0 0 1-35.288615 35.91877z m-182.114462 0a35.918769 35.918769 0 0 1-35.918769-35.91877V57.028923a35.918769 35.918769 0 1 1 71.837538 0v812.898462c0 20.164923-15.753846 36.548923-35.918769 36.548923zM253.952 526.493538A195.268923 195.268923 0 0 1 59.234462 331.776c0-6.301538 1.890462-12.603077 5.04123-18.274462L223.074462 38.754462a35.761231 35.761231 0 0 1 31.507692-18.274462c12.603077 0 24.576 6.931692 31.507692 18.274462L444.888615 313.501538c3.150769 5.671385 5.041231 11.972923 5.041231 18.274462a196.765538 196.765538 0 0 1-195.977846 194.717538zM131.702154 341.228308c4.411077 63.015385 57.974154 113.427692 122.249846 113.427692a122.88 122.88 0 0 0 122.249846-113.427692L253.952 129.496615 131.702154 341.228308z m184.004923 34.658461H192.196923a35.918769 35.918769 0 1 1 0-71.837538h124.140308c20.164923 0 35.918769 16.384 35.918769 35.918769a36.470154 36.470154 0 0 1-36.548923 35.918769z m690.648615 150.606769a195.268923 195.268923 0 0 1-194.717538-194.717538c0-6.301538 1.890462-12.603077 5.041231-18.274462L975.478154 38.754462a35.761231 35.761231 0 0 1 31.507692-18.274462c12.603077 0 24.576 6.931692 31.507692 18.274462L1197.292308 313.501538c3.150769 5.671385 5.041231 11.972923 5.04123 18.274462a196.765538 196.765538 0 0 1-195.977846 194.717538z m-122.249846-185.26523c4.411077 63.015385 57.974154 113.427692 122.249846 113.427692a122.88 122.88 0 0 0 122.249846-113.427692l-122.249846-211.731693-122.249846 211.731693z m184.004923 34.658461h-124.140307a35.918769 35.918769 0 1 1 0-71.837538h124.140307a35.918769 35.918769 0 1 1 0 71.837538z" p-id="6183"></path></svg>