<?xml version="1.0" standalone="no"?><!DOCTYPE svg PUBLIC "-//W3C//DTD SVG 1.1//EN" "http://www.w3.org/Graphics/SVG/1.1/DTD/svg11.dtd"><svg t="1602753360212" class="icon" viewBox="0 0 1024 1024" version="1.1" xmlns="http://www.w3.org/2000/svg" p-id="3973" xmlns:xlink="http://www.w3.org/1999/xlink" width="200" height="200"><defs><style type="text/css"></style></defs><path d="M801.28 960 801.28 448.512c0-161.856-131.584-293.056-293.824-293.056-162.304 0-293.888 131.2-293.888 293.056L213.568 960 140.032 960 140.032 434.304C140.032 229.76 306.56 64 512 64s371.968 165.76 371.968 370.304L883.968 960 801.28 960zM516.544 182.848c213.504-2.304 257.216 228.544 257.216 228.544L773.76 960l-9.28 0-156.032-283.456 0-256c0 0-6.848-73.152-91.904-73.152-84.928 0-100.992 73.152-100.992 73.152l0 256L255.424 960 241.088 960 241.088 411.456C241.088 411.456 277.824 185.408 516.544 182.848zM595.84 676.544 755.392 960 265.216 960l159.552-283.456L595.84 676.544z" p-id="3974"></path></svg>