<?xml version="1.0" standalone="no"?><!DOCTYPE svg PUBLIC "-//W3C//DTD SVG 1.1//EN" "http://www.w3.org/Graphics/SVG/1.1/DTD/svg11.dtd"><svg t="1602748841574" class="icon" viewBox="0 0 1024 1024" version="1.1" xmlns="http://www.w3.org/2000/svg" p-id="2672" xmlns:xlink="http://www.w3.org/1999/xlink" width="200" height="200"><defs><style type="text/css"></style></defs><path d="M665 36a5 5 0 0 1 5 5v78a5 5 0 0 1-5 5H523v71.638l186 138.443V556h196v388H609V751.5c0-39.488-32.012-71.5-71.5-71.5h-61c-39.488 0-71.5 32.012-71.5 71.5V944H107V556h214V334.081l184-138.259V40a4 4 0 0 1 4-4h156zM514 331c-45.287 0-82 36.713-82 82s36.713 82 82 82 82-36.713 82-82-36.713-82-82-82z" fill="" p-id="2673"></path></svg>