<?xml version="1.0" standalone="no"?><!DOCTYPE svg PUBLIC "-//W3C//DTD SVG 1.1//EN" "http://www.w3.org/Graphics/SVG/1.1/DTD/svg11.dtd"><svg t="1602752201226" class="icon" viewBox="0 0 1024 1024" version="1.1" xmlns="http://www.w3.org/2000/svg" p-id="3843" xmlns:xlink="http://www.w3.org/1999/xlink" width="200" height="200"><defs><style type="text/css"></style></defs><path d="M449.7 129.7H95.2c-17.1 0-31.2 14-31.2 31.2V832c0 34.3 28.1 62.3 62.3 62.3h292.2c34.3 0 62.3-28.1 62.3-62.3V160.9c0-17.2-14-31.2-31.1-31.2zM238.8 648.2c0 17.1-14 31.2-31.2 31.2h-45.2c-17.1 0-31.2-14-31.2-31.2V603c0-17.1 14-31.2 31.2-31.2h45.2c17.1 0 31.2 14 31.2 31.2v45.2z m0-174.8c0 17.1-14 31.2-31.2 31.2h-45.2c-17.1 0-31.2-14-31.2-31.2v-45.2c0-17.1 14-31.2 31.2-31.2h45.2c17.1 0 31.2 14 31.2 31.2v45.2z m0-174.8c0 17.1-14 31.2-31.2 31.2h-45.2c-17.1 0-31.2-14-31.2-31.2v-45.2c0-17.1 14-31.2 31.2-31.2h45.2c17.1 0 31.2 14 31.2 31.2v45.2z m174.8 349.6c0 17.1-14 31.2-31.2 31.2h-45.2c-17.1 0-31.2-14-31.2-31.2V603c0-17.1 14-31.2 31.2-31.2h45.2c17.1 0 31.2 14 31.2 31.2v45.2z m0-174.8c0 17.1-14 31.2-31.2 31.2h-45.2c-17.1 0-31.2-14-31.2-31.2v-45.2c0-17.1 14-31.2 31.2-31.2h45.2c17.1 0 31.2 14 31.2 31.2v45.2z m0-174.8c0 17.1-14 31.2-31.2 31.2h-45.2c-17.1 0-31.2-14-31.2-31.2v-45.2c0-17.1 14-31.2 31.2-31.2h45.2c17.1 0 31.2 14 31.2 31.2v45.2zM897.7 894.3h-9.8c-34.4 0-62.3-27.9-62.3-62.3v-77c0-34.4-27.9-62.3-62.3-62.3h-16.5c-34.4 0-62.3 27.9-62.3 62.3v77c0 34.4-27.9 62.3-62.3 62.3h-16.5c-34.4 0-62.3-27.9-62.3-62.3V554.5c0-34.4 27.9-62.3 62.3-62.3h292.2c34.4 0 62.3 27.9 62.3 62.3V832c-0.2 34.4-28.1 62.3-62.5 62.3zM926.4 453.1H576.8c-18.6 0-33.6-15.1-33.6-33.6 0-18.6 15.1-33.6 33.6-33.6h349.6c18.6 0 33.6 15.1 33.6 33.6s-15 33.6-33.6 33.6z" p-id="3844"></path></svg>