<?xml version="1.0" standalone="no"?><!DOCTYPE svg PUBLIC "-//W3C//DTD SVG 1.1//EN" "http://www.w3.org/Graphics/SVG/1.1/DTD/svg11.dtd"><svg t="1594016895087" class="icon" viewBox="0 0 1024 1024" version="1.1" xmlns="http://www.w3.org/2000/svg" p-id="5622" xmlns:xlink="http://www.w3.org/1999/xlink" width="128" height="128"><defs><style type="text/css"></style></defs><path d="M953.5 580.6L555.8 784.3c-38.1 18.9-53.2 18.9-88.4 0L69.6 580.6c-21.1-12.8-26.8-60.1-26.8-85.9 26.6 17.3 63.9 36.5 62.5 35.6l406.3 213.4 406.3-213.4c0.7-0.2 36.9-21 62.5-35.6-0.1 26.4-7.3 75.4-26.9 85.9z m0-213.4L555.7 570.9c-38.1 18.9-53.2 18.9-88.4 0L69.6 367.2c-31.2-18.9-30.3-78.4 0-100.6L467.4 27.3c35.1-20 57.1-21.1 88.4 0l397.7 239.3c30.2 18.8 29.2 85 0 100.6z m-442-299.3l-406.3 249L511.5 512l406.3-195.1-406.3-249z m0 889.2l406.3-213.4c0.7-0.2 36.9-21 62.5-35.6 0 26.4-7.2 75.4-26.8 85.9L555.8 997.7c-38.1 18.9-53.2 18.9-88.4 0L69.6 794c-21.1-12.8-26.8-60-26.8-85.9 26.6 17.3 63.9 36.5 62.5 35.6l406.2 213.4z"  p-id="5623"></path></svg>
