<?xml version="1.0" standalone="no"?><!DOCTYPE svg PUBLIC "-//W3C//DTD SVG 1.1//EN" "http://www.w3.org/Graphics/SVG/1.1/DTD/svg11.dtd"><svg t="1606548313679" class="icon" viewBox="0 0 1024 1024" version="1.1" xmlns="http://www.w3.org/2000/svg" p-id="6322" xmlns:xlink="http://www.w3.org/1999/xlink" width="200" height="200"><defs><style type="text/css"></style></defs><path d="M541.7 668.9l208 103.8 209.5-102.3c-0.8-29.9-25.2-54.1-55.5-54.1H596.9c-29.7 0-53.6 23.4-55.2 52.6z m216.9 145.8c-2.9 1.4-6 2.1-9.2 2.1-3.2 0-6.4-0.7-9.3-2.2l-198.9-99.3v148.8c0 30.7 24.8 55.6 55.6 55.6h306.7c30.7 0 55.6-24.8 55.6-55.6V716.7l-200.5 98zM605.4 510c59.4-39.7 98.6-107.3 98.6-183.9-0.1-130.3-113.3-234.6-246.6-219.7-98.9 11.1-179.7 89.4-193.6 187.8-12.6 89.4 28.8 170.6 96.2 215.8C198 558.9 77.6 702.6 65.6 880.6c-1.1 16 11.7 29.6 27.7 29.6h13.9c14.5 0 26.4-11.2 27.4-25.6 13.1-181.4 164.2-323.4 348.1-323.4 9.3 0 18.4 0.8 27.5 1.5 9.2-4 19.4-6.3 30-6.3h192.3c-63.6-32.1-111.4-41.6-127.1-46.4zM496.3 636h-95.7c-4.8 0-8.6 3.9-8.6 8.6v31.9c0 4.8 3.9 8.6 8.6 8.6h95.6c4.8 0 8.6-3.9 8.6-8.6v-31.9c0.1-4.7-3.8-8.6-8.5-8.6z m0 91.6h-95.6c-4.8 0-8.6 3.9-8.6 8.6v31.9c0 4.8 3.9 8.6 8.6 8.6h95.6c4.8 0 8.6-3.9 8.6-8.6v-31.9c0-4.8-3.9-8.6-8.6-8.6z m0 99.9h-95.7c-4.8 0-8.6 3.9-8.6 8.6V868c0 4.8 3.9 8.6 8.6 8.6h95.7c4.8 0 8.6-3.9 8.6-8.6v-31.9c0-4.7-3.9-8.6-8.6-8.6z m0 0" p-id="6323"></path></svg>