<?xml version="1.0" standalone="no"?><!DOCTYPE svg PUBLIC "-//W3C//DTD SVG 1.1//EN" "http://www.w3.org/Graphics/SVG/1.1/DTD/svg11.dtd"><svg t="1606558515553" class="icon" viewBox="0 0 1024 1024" version="1.1" xmlns="http://www.w3.org/2000/svg" p-id="6628" xmlns:xlink="http://www.w3.org/1999/xlink" width="200" height="200"><defs><style type="text/css"></style></defs><path d="M456.680579 373.626489 290.743292 373.626489l0 54.940286 165.937287 0L456.680579 373.626489zM456.680579 263.74694 290.743292 263.74694l0 54.940286 165.937287 0L456.680579 263.74694zM290.743292 538.447349l442.505229 0 0-54.951543L290.743292 483.495806 290.743292 538.447349zM650.277832 71.459518 207.771579 71.459518c-45.817512 0-82.965573 36.891212-82.965573 82.408895l0 714.215538c0 45.50745 37.148062 82.408895 82.965573 82.408895l608.448656 0c45.824675 0 82.97376-36.902468 82.97376-82.408895L899.193994 318.687226 650.277832 71.459518zM650.277832 153.868413l165.942403 164.81779L705.596741 318.686203c-30.552853 0-55.319933-24.597211-55.319933-54.940286L650.276808 153.868413zM843.874061 840.614319c0 30.341029-24.761963 54.939263-55.30663 54.939263L235.429499 895.553583c-30.549783 0-55.311747-24.598234-55.311747-54.939263L180.117752 181.327812c0-30.331819 24.761963-54.939263 55.311747-54.939263l359.536586 0 0 164.819836c0 45.51666 37.148062 82.419128 82.97069 82.419128l165.937287 0L843.874061 840.614319zM290.743292 648.324852l442.505229 0 0-54.946426L290.743292 593.378425 290.743292 648.324852zM290.743292 758.205425l442.505229 0 0-54.94745L290.743292 703.257975 290.743292 758.205425z" p-id="6629"></path></svg>