<?xml version="1.0" standalone="no"?><!DOCTYPE svg PUBLIC "-//W3C//DTD SVG 1.1//EN" "http://www.w3.org/Graphics/SVG/1.1/DTD/svg11.dtd"><svg t="1606793361688" class="icon" viewBox="0 0 1024 1024" version="1.1" xmlns="http://www.w3.org/2000/svg" p-id="7221" xmlns:xlink="http://www.w3.org/1999/xlink" width="200" height="200"><defs><style type="text/css"></style></defs><path d="M836.032 980.032H187.968A108.032 108.032 0 0 1 80 872.064V152.128c0-59.52 48.384-107.968 107.968-107.968H835.84c59.584 0 107.968 48.384 107.968 107.968v719.936a107.968 107.968 0 0 1-107.776 107.968zM187.968 115.968a36.16 36.16 0 0 0-36.032 35.968v719.936c0 19.904 16.256 35.968 36.032 35.968H835.84a35.904 35.904 0 0 0 36.032-35.968V151.936a36.032 36.032 0 0 0-36.032-35.968H187.968z m469.12 432.896H259.712a35.904 35.904 0 1 1 0-72h397.248a35.904 35.904 0 1 1 0 72z m105.6 214.592H259.584a35.904 35.904 0 1 1 0-72h503.104a35.904 35.904 0 1 1 0 72z m-538.88-483.968a54.016 54.016 0 1 0 107.968 0 54.016 54.016 0 0 0-108.032 0z m233.152 0a54.016 54.016 0 1 0 108.032 0 54.016 54.016 0 0 0-108.032 0z m234.112 0a54.016 54.016 0 1 0 108.032 0 54.016 54.016 0 0 0-108.032 0z" p-id="7222"></path></svg>