<?xml version="1.0" standalone="no"?><!DOCTYPE svg PUBLIC "-//W3C//DTD SVG 1.1//EN" "http://www.w3.org/Graphics/SVG/1.1/DTD/svg11.dtd"><svg t="1606548808877" class="icon" viewBox="0 0 1024 1024" version="1.1" xmlns="http://www.w3.org/2000/svg" p-id="6392" xmlns:xlink="http://www.w3.org/1999/xlink" width="200" height="200"><defs><style type="text/css"></style></defs><path d="M867.328 160.256C717.824 143.36 605.184 102.912 532.48 39.936l-18.944-16.384-20.48 14.848c-113.152 80.384-225.28 121.856-333.312 121.856H128v448c0 137.216 120.832 262.144 370.176 380.928l13.312 6.144 13.312-5.632c246.272-105.984 371.2-233.984 371.2-381.44V163.328l-28.672-3.072z m-35.328 448c0 116.736-107.52 223.232-319.488 316.928-212.992-103.936-320.512-210.432-320.512-316.928V223.232c104.448-6.656 211.456-46.592 318.464-118.784 76.8 58.368 184.832 97.28 321.536 116.224v387.584z" p-id="6393"></path><path d="M645.632 465.408c-1.536-2.56-4.096-4.608-7.168-4.608h-93.696l92.672-142.848c1.536-2.56 1.536-5.632 0-7.68-1.536-2.56-4.096-4.096-6.656-4.096H504.32c-3.072 0-5.632 1.536-7.168 4.096L378.368 542.72c-1.024 2.56-1.024 5.12 0.512 7.68 1.536 2.048 4.096 3.584 6.656 3.584h81.408l-88.576 205.824c-1.536 3.584 0 7.68 3.072 9.728 3.584 2.048 7.68 1.536 10.24-1.536L645.12 474.112c1.536-2.56 2.048-5.632 0.512-8.704z" p-id="6394"></path></svg>