<?xml version="1.0" standalone="no"?><!DOCTYPE svg PUBLIC "-//W3C//DTD SVG 1.1//EN" "http://www.w3.org/Graphics/SVG/1.1/DTD/svg11.dtd"><svg t="1606294226433" class="icon" viewBox="0 0 1024 1024" version="1.1" xmlns="http://www.w3.org/2000/svg" p-id="5933" xmlns:xlink="http://www.w3.org/1999/xlink" width="200" height="200"><defs><style type="text/css"></style></defs><path d="M810.666667 42.666667a128 128 0 0 1 128 128v682.666666a128 128 0 0 1-128 128H213.333333a128 128 0 0 1-128-128V170.666667a128 128 0 0 1 128-128z m0 85.333333H213.333333a42.666667 42.666667 0 0 0-42.666666 42.666667v682.666666a42.666667 42.666667 0 0 0 42.666666 42.666667h597.333334a42.666667 42.666667 0 0 0 42.666666-42.666667V170.666667a42.666667 42.666667 0 0 0-42.666666-42.666667zM362.666667 554.666667a64 64 0 1 1 0 128 64 64 0 0 1 0-128z m320 21.333333a42.666667 42.666667 0 0 1 0 85.333333h-170.666667a42.666667 42.666667 0 0 1 0-85.333333h170.666667zM362.666667 341.333333a64 64 0 1 1 0 128 64 64 0 0 1 0-128z m320 21.333334a42.666667 42.666667 0 0 1 0 85.333333h-170.666667a42.666667 42.666667 0 1 1 0-85.333333h170.666667z" fill="" p-id="5934"></path></svg>