<?xml version="1.0" standalone="no"?><!DOCTYPE svg PUBLIC "-//W3C//DTD SVG 1.1//EN" "http://www.w3.org/Graphics/SVG/1.1/DTD/svg11.dtd"><svg t="1606551087789" class="icon" viewBox="0 0 1024 1024" version="1.1" xmlns="http://www.w3.org/2000/svg" p-id="6252" xmlns:xlink="http://www.w3.org/1999/xlink" width="200" height="200"><defs><style type="text/css"></style></defs><path d="M716.726272 102.4c56.311808 0 104.636416 14.2336 144.775168 42.799104C901.638144 173.66016 921.6 208.166912 921.6 248.711168v409.649152c0 39.626752-19.042304 73.517056-57.337856 101.574656-38.289408 28.051456-84.875264 42.795008-139.757568 44.32896l97.37216 92.254208c4.9152 4.605952 6.039552 9.930752 3.6864 15.9744-2.455552 6.039552-7.0656 9.109504-13.824 9.109504H212.260864c-6.7584 0-11.264-3.069952-13.821952-9.109504-2.453504-6.043648-1.230848-11.4688 3.690496-15.9744l97.368064-92.254208c-54.880256-1.533952-101.46816-16.375808-139.757568-44.32896C121.442304 731.877376 102.4 698.09152 102.4 658.36032V248.81152c0-40.644608 19.968-75.149312 60.102656-103.510016 40.134656-28.3648 88.358912-42.801152 144.771072-42.801152L716.726272 102.4zM182.464512 680.787968c14.340096 14.333952 31.535104 21.397504 51.603456 21.397504s37.271552-7.168 51.603456-21.397504c14.331904-14.338048 21.4016-31.535104 21.4016-51.601408 0-20.068352-7.274496-37.271552-21.4016-51.603456-14.331904-14.340096-31.535104-21.4016-51.603456-21.4016s-37.26336 7.268352-51.603456 21.4016c-14.331904 14.331904-21.395456 31.535104-21.395456 51.603456-0.002048 20.066304 6.9632 37.26336 21.395456 51.601408z m241.944576-227.201024V219.531264H175.603712v234.05568h248.805376z m438.423552 0V219.531264H599.488512v234.05568h263.344128z m-124.708864 227.201024c14.331904 14.333952 31.533056 21.397504 51.601408 21.397504s37.269504-7.168 51.603456-21.397504c14.331904-14.338048 21.395456-31.535104 21.395456-51.601408 0.002048-20.068352-7.268352-37.271552-21.395456-51.603456-14.333952-14.340096-31.535104-21.4016-51.603456-21.4016s-37.269504 7.268352-51.603456 21.4016c-14.333952 14.331904-21.395456 31.535104-21.395456 51.603456 0 20.066304 7.061504 37.26336 21.397504 51.601408z" p-id="6253"></path></svg>