<?xml version="1.0" standalone="no"?><!DOCTYPE svg PUBLIC "-//W3C//DTD SVG 1.1//EN" "http://www.w3.org/Graphics/SVG/1.1/DTD/svg11.dtd"><svg t="1606543966761" class="icon" viewBox="0 0 1024 1024" version="1.1" xmlns="http://www.w3.org/2000/svg" p-id="6142" xmlns:xlink="http://www.w3.org/1999/xlink" width="200" height="200"><defs><style type="text/css"></style></defs><path d="M976.16001 295.608C1006.85401 361.338 1024.00001 434.668 1024.00001 512c0 282.77-229.23 512-512 512-262.813 0-479.377-198.015-508.636-452.99A517.453 517.453 0 0 1 0.00001 512C0.00001 229.23 229.23001 0 512.00001 0c205.437 0 382.614 120.994 464.16 295.608zM82.00601 385.845C70.28701 425.86 64.00001 468.195 64.00001 512c0 247.424 200.576 448 448 448 21.326 0 42.304-1.49 62.835-4.372 6.392-31.748 15.201-66.814 26.61-93.654 3.89-9.155 7.022-17.236 9.707-24.24 17.451-44.912 35.006-76.332 102.541-71.13 7.297 0.867 29.568-7.248 98.101-70.643a229.153 229.153 0 0 0-32.08-17.652c-61.133-27.953-137.962-151.795-153.727-186.926-5.37-5.029-34.868-19.907-49.222-27.155-44.645-22.577-90.632-45.847-108.84-85.903-30.498-67.314-7.814-133.657 23.647-173.296 39.791-50.078 116-24.519 139.097-15.155 45.02 8.13 190.537 35.352 240.896 54.84C789.90501 135.04 659.24801 64 512.00001 64c-44.227 0-86.957 6.409-127.312 18.348 15.813 12.276 29.406 28.091 35.942 48.223 7.262 22.472 4.061 46.436-8.984 67.522-3.408 5.445-6.885 12.415-10.843 20.496l-1.205 2.393c-20.584 41.373-51.7 104.04-116.172 117.947-15.18 3.294-24.852 7.976-36.04 13.421-24.404 11.895-51.734 25.213-108.84 15.12-15.292-2.776-35.777 6.13-56.539 18.375z m57.826-123.319c0.58 0.09 1.16 0.184 1.742 0.283 28.708 5.004 36.15 1.444 54.173-7.154 13.552-6.45 30.312-14.443 55.914-19.851 22.768-4.87 41.508-41.683 55.197-68.587 4.95-9.674 9.148-17.769 13.176-24.654-4.779-4.3-14.132-10.379-27.889-15.787a92.717 92.717 0 0 1-5.196-2.232c-58.882 34.274-109.239 81.587-147.117 137.982zM917.80001 321.932c-23.62 6.565-48.355 7.844-71.179-1.578-31.833-13.187-160.035-38.592-233.347-51.571l-9.787-2.873c-15.429-6.68-34.967-10.522-43.013-9.83-7.732 10.626-26.225 41.777-9.926 77.15 5.329 11.63 49.804 33.781 68.82 43.265 41.515 20.629 77.18 38.385 91.18 69.778 17.135 38.177 84.423 130.349 111.171 142.463 59.974 27.032 92.677 57.871 97.31 91.687 0.954 7.093 0.649 14.091-0.832 20.796C945.02001 643.737 960.00001 579.618 960.00001 512c0-67.95-15.128-132.369-42.2-190.068z m-13.114 405.884a68.778 68.778 0 0 1-8.087 7.917c-3.726 3.08-8.985 7.96-15.254 13.706-58.825 53.96-115.873 101.656-170.867 97.018-2.75-0.243-5.05-0.416-6.86-0.416-1.951 4.534-4.32 10.522-6.13 15.126-3.03 7.753-6.583 16.717-10.936 26.824-5.115 11.846-9.709 26.778-13.698 42.265 99.055-38.12 181.147-110.414 231.832-202.44z" p-id="6143"></path></svg>