<?xml version="1.0" standalone="no"?><!DOCTYPE svg PUBLIC "-//W3C//DTD SVG 1.1//EN" "http://www.w3.org/Graphics/SVG/1.1/DTD/svg11.dtd"><svg t="1601457400489" class="icon" viewBox="0 0 1024 1024" version="1.1" xmlns="http://www.w3.org/2000/svg" p-id="6122" xmlns:xlink="http://www.w3.org/1999/xlink" width="200" height="200"><defs><style type="text/css"></style></defs><path d="M864.692009 850.079226c84.210769-87.835312 136.28774-206.79135 136.287741-338.079226 0-240.273862-173.420378-439.593045-401.785026-480.771827-0.280385-0.028653-0.505512-0.083911-0.786921-0.140193-28.087652-5.000887-56.852732-8.06159-86.402686-8.06159-270.074525 0-488.986913 218.898061-488.986913 488.97361 0 131.794412 52.38601 251.172051 137.157548 339.118903 0.322341 0.449231 0.377599 1.011025 0.729616 1.460255 0.800224 1.039677 1.968837 1.573842 2.866275 2.473326 88.689771 89.995507 211.876148 145.922149 348.233474 145.922149 135.727993 0 258.474349-55.391454 347.126258-144.71465 1.345645-1.207499 3.033074-1.938138 4.21192-3.453651 0.675381-0.845249 0.843203-1.827621 1.348714-2.727106z m-324.427325 91.908063V752.835656c46.008778 2.498909 90.896015 10.785626 133.759156 25.195795-25.054579 59.351641-58.088884 113.761746-98.704849 160.219754a403.093832 403.093832 0 0 1-35.054307 3.736084z m-82.667626-2.332111c-41.613687-47.329864-75.26402-102.947468-100.669593-163.731734 40.44712-12.920238 82.554039-20.615485 125.781477-23.031507v189.094328c-8.42691-0.5884-16.795491-1.319039-25.111884-2.331087zM81.976896 540.764056h165.50205c2.878555 69.521238 15.111132 137.382676 35.839182 201.482448-33.131519 14.662925-64.772083 32.94937-94.966719 54.127674-60.924459-69.268481-99.871415-157.973602-106.374513-255.610122z m106.375536-313.13721c29.478323 20.674837 60.459879 38.369813 92.791174 52.862869-20.167278 64.156054-31.727545 132.300947-34.003373 202.748275H81.976896c6.503098-97.666195 45.450054-186.371316 106.375536-255.611144z m294.35651-145.585482v189.096374c-43.985706-2.473326-86.892849-10.309789-128.027629-23.679258 24.395571-59.943111 56.810777-115.024503 96.821969-162.157892 10.295463-1.461278 20.673814-2.584866 31.20566-3.259224z m98.678243 4.636591c38.986865 46.205252 70.725667 99.939977 94.772291 158.393157-43.539545 14.858376-89.154351 23.567718-135.894792 26.122908v-189.208938a423.073846 423.073846 0 0 1 41.122501 4.692873z m360.606243 396.560035H784.638926c-2.248199-71.65585-14.158436-140.923308-34.999049-206.005452 29.887644-13.90261 58.594396-30.420786 86.008714-49.576016 60.89683 69.237782 99.828437 157.943926 106.344837 255.581468z m-459.284486 0H304.695975c2.275828-62.470672 12.709438-123.67654 30.630563-181.511644 47.287908 15.506128 96.725778 24.382268 147.382404 26.938482v154.573162z m0 57.526066v154.600792c-50.069249 2.500955-98.914626 11.320814-145.627437 26.489251-18.385706-57.582348-29.283895-118.564112-32.105145-181.090043h177.732582z m57.555742 0H726.832474c-2.866275 63.284199-13.987544 124.995579-32.751873 183.225679-49.212743-16.71465-100.840484-26.096303-153.815917-28.681169V540.764056z m0-57.526066v-154.518927c53.479922-2.611472 105.671503-12.471008 155.442971-29.548931 18.369333 58.593373 29.100724 120.670072 31.403158 184.067858H540.264684z m189.601887-260.245689c-16.292025-39.352185-35.89751-76.68232-58.875805-111.710021 45.390702 18.061318 86.85294 43.594804 123.144422 75.081872-20.674837 13.848375-42.135572 26.094256-64.268617 36.628149z m-429.174785 3.146661a502.386057 502.386057 0 0 1-70.894512-39.746157c39.001191-33.847831 84.125834-60.672727 133.465467-78.874238-24.621721 36.993468-45.505312 76.683343-62.570955 118.620395z m2.626821 570.319126c18.00606 43.425958 39.943654 84.379614 65.785154 122.15898-51.698349-18.22914-98.846065-45.868585-139.419051-81.12039 23.552368-15.786513 48.144414-29.494696 73.633897-41.03859z m423.849511 3.201919c23.146117 10.87056 45.617876 23.398873 67.076564 37.836671-37.808019 32.892065-81.399752 59.15619-129.040701 77.328025 24.100859-35.784946 44.775697-74.351233 61.964137-115.164696z m20.279841-54.127673c21.40343-65.024839 33.931742-134.07024 36.910581-204.768278h157.634888c-6.516401 97.636519-45.448007 186.342663-106.34586 255.609098-28.087652-19.690419-57.526066-36.740712-88.199609-50.84082z" p-id="6123"></path></svg>
