<?xml version="1.0" standalone="no"?><!DOCTYPE svg PUBLIC "-//W3C//DTD SVG 1.1//EN" "http://www.w3.org/Graphics/SVG/1.1/DTD/svg11.dtd"><svg t="1606791727275" class="icon" viewBox="0 0 1176 1024" version="1.1" xmlns="http://www.w3.org/2000/svg" p-id="7095" xmlns:xlink="http://www.w3.org/1999/xlink" width="229.6875" height="200"><defs><style type="text/css"></style></defs><path d="M635.449268 4.973174c-18.265979-8.65199-39.414955-5.767993-54.796937 6.729993l-293.209662 245.142717-234.56873-0.960999c-13.458984 0-26.917969 5.767993-36.530958 14.419984C6.728992 279.917857 0.959999 292.414843 0.959999 306.834826L0 716.369354c0 13.459984 5.767993 26.917969 15.381982 36.530958s23.071973 15.381982 36.529958 15.381983h237.452727l293.209662 244.181718c9.613989 7.689991 21.149976 11.535987 32.685962 11.535987 7.690991 0 15.381982-1.922998 22.110975-4.806994 18.265979-8.65199 29.801966-26.916969 29.801965-46.143947V51.118121c-1.922998-19.226978-13.458984-37.492957-31.723963-46.144947z m198.99777 255.717706c-24.994971-11.535987-54.795937-0.960999-67.293922 24.033972-12.496986 24.994971-1.922998 55.757936 23.071973 68.254921 2.883997 1.922998 79.791908 41.337952 79.791908 154.776822 0 121.12986-72.099917 161.505814-74.023914 162.467813-24.994971 12.496986-35.569959 43.25995-23.071974 68.254921 8.65199 18.265979 26.917969 27.879968 46.144947 27.879968 7.689991 0 15.380982-1.922998 23.071974-5.768993 5.767993-2.883997 130.742849-67.293922 130.742849-253.794708-0.960999-178.809794-132.665847-243.21972-138.433841-246.104716z m159.583817-149.969828c-24.033972-15.380982-54.796937-8.65199-70.17792 15.381983-15.381982 23.071973-8.65299 54.796937 14.419984 71.139918 5.767993 3.844996 136.509843 93.249893 136.509842 315.319636 0 223.032743-125.934855 312.43764-130.741849 315.321637-23.072973 15.381982-29.801966 47.105946-14.419983 71.139918 9.612989 14.419983 25.95597 23.071973 42.298951 23.071973 9.612989 0 19.226978-2.883997 27.878968-8.65199 6.729992-4.806994 175.925797-121.12986 175.925797-400.880538 0.961999-281.673675-174.964798-397.035542-181.69379-401.842537z" p-id="7096"></path></svg>