<?xml version="1.0" standalone="no"?><!DOCTYPE svg PUBLIC "-//W3C//DTD SVG 1.1//EN" "http://www.w3.org/Graphics/SVG/1.1/DTD/svg11.dtd"><svg t="1606560882533" class="icon" viewBox="0 0 1024 1024" version="1.1" xmlns="http://www.w3.org/2000/svg" p-id="6714" xmlns:xlink="http://www.w3.org/1999/xlink" width="200" height="200"><defs><style type="text/css"></style></defs><path d="M205.110318 1018.356946H48.850479a45.560953 45.560953 0 0 1-45.503952-45.504953V45.504953A45.560953 45.560953 0 0 1 48.850479 0h744.806229a45.560953 45.560953 0 0 1 45.504953 45.504953v254.132737a33.983965 33.983965 0 1 1-67.967929 0V67.96793H71.314456v882.454086H205.110318a33.983965 33.983965 0 1 1 0 67.96893z" p-id="6715"></path><path d="M588.552921 242.566749H185.274338a33.983965 33.983965 0 1 1 0-67.96793h403.278583a33.983965 33.983965 0 0 1 0 67.96893z m0 223.071769H185.274338a33.983965 33.983965 0 1 1 0-67.96793h403.278583a33.983965 33.983965 0 0 1 0 67.96793z m-270.73972 223.083769H185.273338a33.983965 33.983965 0 0 1 0-67.96893h132.537863a33.983965 33.983965 0 1 1 0 67.96893z m429.694555 335.275653A273.129717 273.129717 0 1 1 940.649556 943.999023 271.317719 271.317719 0 0 1 747.507756 1023.99894z m0-478.315505c-113.121883 0-205.150788 92.029905-205.150787 205.150788s92.028905 205.150788 205.149787 205.150787 205.151788-92.028905 205.151788-205.149787-92.006905-205.151788-205.150788-205.151788z" p-id="6716"></path><path d="M850.909649 831.14914H723.719781a47.429951 47.429951 0 0 1-47.373951-47.373951V649.900327a33.983965 33.983965 0 0 1 67.96793 0v113.279883H850.909649a33.983965 33.983965 0 0 1 0 67.96993z" p-id="6717"></path></svg>