<?xml version="1.0" standalone="no"?><!DOCTYPE svg PUBLIC "-//W3C//DTD SVG 1.1//EN" "http://www.w3.org/Graphics/SVG/1.1/DTD/svg11.dtd"><svg t="1603271150273" class="icon" viewBox="0 0 1024 1024" version="1.1" xmlns="http://www.w3.org/2000/svg" p-id="8125" xmlns:xlink="http://www.w3.org/1999/xlink" width="128" height="128"><defs><style type="text/css"></style></defs><path d="M1001.984 387.072C880.128-19.456 491.52 1.024 491.52 1.024 1036.288 268.8 791.552 648.192 791.552 648.192L475.648 324.608 596.48 192l-82.432-76.8-65.024 59.392-122.368-1.536L77.312 427.008l151.04 137.216 93.696-90.624 322.56 313.856C371.2 967.168 121.856 670.72 121.856 670.72L23.04 756.736 97.792 844.8l-12.8 17.408c-34.816-3.072-49.152 12.8-49.152 12.8-86.016 82.944 17.408 129.024 17.408 129.024 100.352 22.016 95.232-81.408 95.232-81.408l18.944-24.064c376.832 203.776 599.04 20.48 599.04 20.48l108.032 101.888 147.456-148.48L925.696 768s131.584-194.048 76.288-380.928" p-id="8126"></path></svg>
