<?xml version="1.0" standalone="no"?><!DOCTYPE svg PUBLIC "-//W3C//DTD SVG 1.1//EN" "http://www.w3.org/Graphics/SVG/1.1/DTD/svg11.dtd"><svg t="1606560878991" class="icon" viewBox="0 0 1024 1024" version="1.1" xmlns="http://www.w3.org/2000/svg" p-id="6573" xmlns:xlink="http://www.w3.org/1999/xlink" width="200" height="200"><defs><style type="text/css"></style></defs><path d="M547.2 992h-432C70.4 992 32 953.6 32 908.8V115.2C32 70.4 70.4 32 115.2 32h729.6c44.8 0 83.2 38.4 83.2 83.2v393.6c0 19.2-12.8 32-32 32s-32-12.8-32-32V115.2c0-9.6-9.6-19.2-19.2-19.2H115.2c-9.6 0-19.2 9.6-19.2 19.2v793.6c0 9.6 9.6 19.2 19.2 19.2h432c19.2 0 32 12.8 32 32s-12.8 32-32 32z" p-id="6574"></path><path d="M640 992c-9.6 0-16-3.2-22.4-9.6-6.4-6.4-9.6-12.8-9.6-22.4v-96c0-9.6 3.2-16 9.6-22.4l256-256c12.8-12.8 32-12.8 44.8 0l96 96c12.8 12.8 12.8 32 0 44.8L768 979.2c-6.4 6.4-12.8 9.6-22.4 9.6L640 992z m32-115.2V928h60.8l214.4-220.8-51.2-54.4-224 224zM736 320H224c-19.2 0-32-12.8-32-32s12.8-32 32-32h512c19.2 0 32 12.8 32 32s-12.8 32-32 32z m-96 192H224c-19.2 0-32-12.8-32-32s12.8-32 32-32h416c19.2 0 32 12.8 32 32s-12.8 32-32 32z m-96 192H224c-19.2 0-32-12.8-32-32s12.8-32 32-32h320c19.2 0 32 12.8 32 32s-12.8 32-32 32z" p-id="6575"></path></svg>