<?xml version="1.0" standalone="no"?><!DOCTYPE svg PUBLIC "-//W3C//DTD SVG 1.1//EN" "http://www.w3.org/Graphics/SVG/1.1/DTD/svg11.dtd"><svg t="1603447517714" class="icon" viewBox="0 0 1024 1024" version="1.1" xmlns="http://www.w3.org/2000/svg" p-id="3657" xmlns:xlink="http://www.w3.org/1999/xlink" width="200" height="200"><defs><style type="text/css"></style></defs><path d="M632.746 898.61c0 12.527-10.111 22.694-22.574 22.694h-180.57c-12.459 0-22.572-10.166-22.572-22.694s10.111-22.697 22.572-22.697h180.57c12.462 0 22.574 10.17 22.574 22.697zM610.173 930.224h-180.571c-14.852 0-26.353 14.423-21.409 30.094 2.98 9.451 12.494 15.296 22.357 15.296h0.339c13.036 0 24.953 7.409 30.787 19.132l0.237 0.477c7.867 15.797 23.926 25.78 41.499 25.78h32.956c17.572 0 33.631-9.984 41.487-25.78l0.237-0.477c5.834-11.722 17.751-19.132 30.786-19.132h0.339c9.863 0 19.377-5.844 22.357-15.296 4.954-15.67-6.547-30.094-21.398-30.094zM236.793 264.92c4.062 4.108 9.698 6.65 15.927 6.65 0.012 0 0.021 0 0.033 0 5.776 0 11.556-2.213 15.957-6.65 8.814-8.862 8.814-23.228 0-32.090l-63.842-64.192c-8.803-8.862-23.114-8.862-31.916 0-8.814 8.863-8.814 23.229 0 32.091l63.842 64.191zM501.436 125.938c0 0.030 0 0.062 0 0.096 0 6.207 2.524 11.823 6.601 15.882 4.054 4.057 9.653 6.565 15.839 6.565 0.054 0 0.108 0 0.163 0 12.491-0.049 22.635-10.218 22.657-22.717l0.141-90.535c0.027-12.491-10.105-22.598-22.594-22.542-12.5 0.050-22.646 10.219-22.666 22.718l-0.14 90.534zM236.169 501.454c0-12.527-10.111-22.694-22.572-22.694h-90.287c-12.459 0-22.572 10.166-22.572 22.694s10.111 22.695 22.572 22.695h90.287c12.459 0.001 22.572-10.166 22.572-22.695zM280.483 702.792l-63.843 64.192c-8.814 8.863-8.814 23.228 0 32.090 4.062 4.108 9.699 6.651 15.929 6.651 0.011 0 0.020 0 0.031 0 5.776 0 11.555-2.214 15.957-6.651l63.843-64.192c8.814-8.861 8.814-23.228 0-32.090-8.801-8.861-23.111-8.861-31.916 0zM754.438 702.792c-8.816-8.861-23.102-8.861-31.917 0-8.813 8.863-8.813 23.23 0 32.090l63.843 64.192c4.065 4.108 9.706 6.651 15.939 6.651 0.005 0 0.014 0 0.019 0 5.778 0 11.545-2.214 15.958-6.651 8.813-8.863 8.813-23.228 0-32.090l-63.842-64.192zM924.963 478.759h-90.288c-12.459 0-22.572 10.166-22.572 22.694s10.111 22.695 22.572 22.695h90.288c12.459 0 22.572-10.169 22.572-22.695s-10.114-22.694-22.572-22.694zM771.248 252.15c5.776 0 11.543-2.213 15.957-6.65l63.843-64.191c8.813-8.862 8.813-23.228 0-32.091-8.813-8.862-23.102-8.862-31.917 0l-63.843 64.192c-8.813 8.862-8.813 23.228 0 32.090 4.063 4.108 9.699 6.65 15.929 6.65 0.012 0 0.021 0 0.033 0zM661.098 842.246c0 15.001-12.11 27.178-27.030 27.178h-216.225c-14.919 0-27.029-12.176-27.029-27.178 0-14.47 11.283-26.198 25.475-27.013-16.826-152.916-174.129-186.982-174.129-367.035 0-157.593 127.060-285.344 283.795-285.344 156.739 0 283.797 127.754 283.797 285.344 0 180.052-157.303 214.119-174.13 367.036 14.189 0.814 25.475 12.542 25.475 27.012zM467.872 338.166c-3.51-8.703-13.362-12.89-22.051-9.383-57.682 23.5-101.413 73.733-116.977 134.373-2.336 9.113 3.116 18.383 12.166 20.732 1.41 0.377 2.833 0.544 4.231 0.544 7.539 0 14.412-5.093 16.386-12.765 12.889-50.246 49.116-91.868 96.9-111.328 8.667-3.529 12.841-13.447 9.343-22.172z" p-id="3658"></path></svg>