<?xml version="1.0" standalone="no"?><!DOCTYPE svg PUBLIC "-//W3C//DTD SVG 1.1//EN" "http://www.w3.org/Graphics/SVG/1.1/DTD/svg11.dtd"><svg t="1606290076592" class="icon" viewBox="0 0 1024 1024" version="1.1" xmlns="http://www.w3.org/2000/svg" p-id="6266" xmlns:xlink="http://www.w3.org/1999/xlink" width="200" height="200"><defs><style type="text/css"></style></defs><path d="M810.666667 170.666667h-149.333334c12.8 0 21.333333-8.533333 21.333334-21.333334s-8.533333-21.333333-21.333334-21.333333h-298.666666c-12.8 0-21.333333 8.533333-21.333334 21.333333s8.533333 21.333333 21.333334 21.333334H213.333333c-46.933333 0-85.333333 38.4-85.333333 85.333333v512c0 46.933333 38.4 85.333333 85.333333 85.333333h42.666667v42.666667c0 34.133333 29.866667 64 64 64S384 930.133333 384 896v-42.666667h256v42.666667c0 34.133333 29.866667 64 64 64S768 930.133333 768 896v-42.666667h42.666667c46.933333 0 85.333333-38.4 85.333333-85.333333V256c0-46.933333-38.4-85.333333-85.333333-85.333333zM320 725.333333c-34.133333 0-64-29.866667-64-64S285.866667 597.333333 320 597.333333s64 29.866667 64 64S354.133333 725.333333 320 725.333333z m384 0c-34.133333 0-64-29.866667-64-64s29.866667-64 64-64 64 29.866667 64 64-29.866667 64-64 64z m64-256H256V341.333333c0-25.6 17.066667-42.666667 42.666667-42.666666h426.666666c25.6 0 42.666667 17.066667 42.666667 42.666666v128z" p-id="6267"></path></svg>