<?xml version="1.0" standalone="no"?><!DOCTYPE svg PUBLIC "-//W3C//DTD SVG 1.1//EN" "http://www.w3.org/Graphics/SVG/1.1/DTD/svg11.dtd"><svg t="1603338383537" class="icon" viewBox="0 0 1024 1024" version="1.1" xmlns="http://www.w3.org/2000/svg" p-id="7407" xmlns:xlink="http://www.w3.org/1999/xlink" width="200" height="200"><defs><style type="text/css"></style></defs><path d="M837.04 962c-15.33 0-31.1-4.51-46.3-13.52L513.51 785.17 233.33 948.73c-28.46 16.23-59.05 17.38-83.91 2.96-25.89-15-40.63-43.85-40.63-79.27V172.44C108.78 111.46 156.18 62 214.52 62h595.79c27.05 0 52.81 10.95 72.51 30.91 20.87 21.13 32.71 50.55 32.39 80.69v698.89c0 35.16-15.39 65.04-41.21 79.72-11.46 6.44-24.08 9.79-37.03 9.79h0.07z" p-id="7408"></path></svg>