<?xml version="1.0" standalone="no"?><!DOCTYPE svg PUBLIC "-//W3C//DTD SVG 1.1//EN" "http://www.w3.org/Graphics/SVG/1.1/DTD/svg11.dtd"><svg t="1603271305633" class="icon" viewBox="0 0 1024 1024" version="1.1" xmlns="http://www.w3.org/2000/svg" p-id="8265" xmlns:xlink="http://www.w3.org/1999/xlink" width="128" height="128"><defs><style type="text/css"></style></defs><path d="M533.333333 896c-93.866667 0-179.2-34.133333-247.466666-98.133333 17.066667-8.533333 34.133333-25.6 42.666666-42.666667 55.466667 51.2 128 81.066667 204.8 81.066667 64 0 128-21.333333 179.2-59.733334 17.066667 17.066667 34.133333 25.6 55.466667 29.866667-64 59.733333-149.333333 89.6-234.666667 89.6z m345.6-251.733333c-12.8-17.066667-29.866667-34.133333-51.2-38.4 4.266667-21.333333 8.533333-46.933333 8.533334-72.533334 0-128-81.066667-238.933333-196.266667-285.866666v-12.8c0-17.066667-4.266667-34.133333-12.8-51.2 157.866667 42.666667 268.8 187.733333 268.8 349.866666 0 38.4-4.266667 76.8-17.066667 110.933334z m-699.733333-29.866667c-4.266667-25.6-8.533333-55.466667-8.533333-81.066667 0-166.4 110.933333-307.2 268.8-349.866666-8.533333 17.066667-12.8 34.133333-12.8 51.2v12.8c-119.466667 42.666667-196.266667 157.866667-196.266667 285.866666 0 21.333333 4.266667 42.666667 8.533333 64-25.6 0-42.666667 4.266667-59.733333 17.066667z" p-id="8266"></path><path d="M533.333333 384C452.266667 384 384 315.733333 384 234.666667S452.266667 85.333333 533.333333 85.333333 682.666667 153.6 682.666667 234.666667 614.4 384 533.333333 384z m0-243.2c-51.2 0-93.866667 42.666667-93.866666 93.866667s42.666667 93.866667 93.866666 93.866666c51.2 0 93.866667-42.666667 93.866667-93.866666s-42.666667-93.866667-93.866667-93.866667z" p-id="8267"></path><path d="M234.666667 853.333333C153.6 853.333333 85.333333 785.066667 85.333333 704S153.6 554.666667 234.666667 554.666667 384 622.933333 384 704 315.733333 853.333333 234.666667 853.333333z m0-243.2c-51.2 0-93.866667 42.666667-93.866667 93.866667s42.666667 93.866667 93.866667 93.866667 93.866667-42.666667 93.866666-93.866667-42.666667-93.866667-93.866666-93.866667z" p-id="8268"></path><path d="M789.333333 853.333333c-81.066667 0-149.333333-68.266667-149.333333-149.333333s68.266667-149.333333 149.333333-149.333333 149.333333 68.266667 149.333334 149.333333-68.266667 149.333333-149.333334 149.333333z m0-243.2c-51.2 0-93.866667 42.666667-93.866666 93.866667s42.666667 93.866667 93.866666 93.866667 93.866667-42.666667 93.866667-93.866667-42.666667-93.866667-93.866667-93.866667z" p-id="8269"></path></svg>
