<?xml version="1.0" standalone="no"?><!DOCTYPE svg PUBLIC "-//W3C//DTD SVG 1.1//EN" "http://www.w3.org/Graphics/SVG/1.1/DTD/svg11.dtd"><svg t="1601456619917" class="icon" viewBox="0 0 1024 1024" version="1.1" xmlns="http://www.w3.org/2000/svg" p-id="5404" xmlns:xlink="http://www.w3.org/1999/xlink" width="200" height="200"><defs><style type="text/css"></style></defs><path d="M755.809524 536.380952a243.809524 243.809524 0 0 1 243.565714 233.228191L999.619048 780.190476v97.52381a146.285714 146.285714 0 0 1-137.703619 146.041904L853.333333 1024H170.666667a146.285714 146.285714 0 0 1-146.041905-137.703619L24.380952 877.714286v-97.52381a243.809524 243.809524 0 0 1 233.228191-243.565714L268.190476 536.380952h487.619048z m0 97.52381H268.190476a146.285714 146.285714 0 0 0-146.041905 137.703619L121.904762 780.190476v97.52381a48.761905 48.761905 0 0 0 43.056762 48.420571L170.666667 926.47619h682.666666a48.761905 48.761905 0 0 0 48.420572-43.056761L902.095238 877.714286v-97.52381a146.285714 146.285714 0 0 0-146.285714-146.285714z m-97.52381 97.523809a48.761905 48.761905 0 0 1 0 97.52381H365.714286a48.761905 48.761905 0 0 1 0-97.52381h292.571428zM512 0a243.809524 243.809524 0 1 1 0 487.619048 243.809524 243.809524 0 0 1 0-487.619048z m0 97.52381a146.285714 146.285714 0 1 0 0 292.571428 146.285714 146.285714 0 0 0 0-292.571428z" p-id="5405"></path></svg>
