<?xml version="1.0" standalone="no"?><!DOCTYPE svg PUBLIC "-//W3C//DTD SVG 1.1//EN" "http://www.w3.org/Graphics/SVG/1.1/DTD/svg11.dtd"><svg t="1603510234705" class="icon" viewBox="0 0 1024 1024" version="1.1" xmlns="http://www.w3.org/2000/svg" p-id="4595" xmlns:xlink="http://www.w3.org/1999/xlink" width="200" height="200"><defs><style type="text/css"></style></defs><path d="M888.6 959.4H135.7c-19.8 0-35.9-16.1-35.9-35.9v-35.9c0-19.8 16.1-35.9 35.9-35.9h752.9c19.8 0 35.9 16.1 35.9 35.9v35.9c0 19.8-16.1 35.9-35.9 35.9zM565.9 278.2c0-27.3 32.5-42.1 58.2-33l201.6 58.1c20.2 7.1 27 23.3 27 46.6v501.9H565.9V278.2z m107.6 466.1h71.7c19.8 0 35.9-16 35.9-35.8 0-19.8-16.1-35.9-35.9-35.9h-71.7c-19.8 0-35.9 16.1-35.9 35.9 0.1 19.7 16.1 35.8 35.9 35.8z m0-143.4h71.7c19.8 0 35.9-16.1 35.9-35.9 0-19.8-16.1-35.8-35.9-35.8h-71.7c-19.8 0-35.9 16-35.9 35.8 0.1 19.8 16.1 35.9 35.9 35.9z m0-143.5h71.7c19.8 0 35.9-16 35.9-35.8s-16.1-35.9-35.9-35.9h-71.7c-19.8 0-35.9 16.1-35.9 35.9s16.1 35.8 35.9 35.8zM171.6 242.3c0-31.8 47.1-86.3 72.6-96.1l244.3-79.5c32.4-12.4 41.7 30.8 41.7 68v717H171.6V242.3z m143.4 502h71.7c19.8 0 35.9-16 35.9-35.8 0-19.8-16.1-35.9-35.9-35.9H315c-19.8 0-35.9 16.1-35.9 35.9 0 19.7 16.1 35.8 35.9 35.8z m0-143.4h71.7c19.8 0 35.9-16.1 35.9-35.9 0-19.8-16.1-35.8-35.9-35.8H315c-19.8 0-35.9 16-35.9 35.8 0 19.8 16.1 35.9 35.9 35.9z m0-143.5h71.7c19.8 0 35.9-16 35.9-35.8s-16.1-35.9-35.9-35.9H315c-19.8 0-35.9 16.1-35.9 35.9s16.1 35.8 35.9 35.8z m0-143.4h71.7c19.8 0 35.9-16.1 35.9-35.9s-16.1-35.8-35.9-35.8H315c-19.8 0-35.9 16-35.9 35.8S295.2 314 315 314z" p-id="4596"></path></svg>