<?xml version="1.0" standalone="no"?><!DOCTYPE svg PUBLIC "-//W3C//DTD SVG 1.1//EN" "http://www.w3.org/Graphics/SVG/1.1/DTD/svg11.dtd"><svg t="1602869588016" class="icon" viewBox="0 0 1024 1024" version="1.1" xmlns="http://www.w3.org/2000/svg" p-id="3550" xmlns:xlink="http://www.w3.org/1999/xlink" width="200" height="200"><defs><style type="text/css"></style></defs><path d="M682.666667 725.333333v85.333334H85.333333v-85.333334s0-170.666667 298.666667-170.666666 298.666667 170.666667 298.666667 170.666666m-149.333334-405.333333A149.333333 149.333333 0 1 0 384 469.333333a149.333333 149.333333 0 0 0 149.333333-149.333333m146.773334 234.666667A226.986667 226.986667 0 0 1 768 725.333333v85.333334h170.666667v-85.333334s0-154.88-258.56-170.666666M640 170.666667a144.64 144.64 0 0 0-82.346667 25.173333 213.333333 213.333333 0 0 1 0 248.32A144.64 144.64 0 0 0 640 469.333333a149.333333 149.333333 0 0 0 0-298.666666z" p-id="3551" fill="#BFCBD9"></path></svg>