<?xml version="1.0" standalone="no"?><!DOCTYPE svg PUBLIC "-//W3C//DTD SVG 1.1//EN" "http://www.w3.org/Graphics/SVG/1.1/DTD/svg11.dtd"><svg t="1603510182100" class="icon" viewBox="0 0 1024 1024" version="1.1" xmlns="http://www.w3.org/2000/svg" p-id="4170" xmlns:xlink="http://www.w3.org/1999/xlink" width="200" height="200"><defs><style type="text/css"></style></defs><path d="M444.85537 424.90737l145.33592-251.64657c12.390972-21.539468 3.359178-48.984956-19.339298-59.060201-52.111875-23.16185-110.015356-35.437265-171.044613-34.047142C186.261618 84.901613 11.278897 261.621131 8.615352 475.165747 5.720693 698.556782 186.028215 880.603388 408.839174 880.603388c202.543768 0 369.883674-150.54745 396.517971-345.796219 3.359178-25.129761-15.981265-47.479276-41.226584-47.479276H480.871567c-32.078087-0.116702-52.113019-34.742775-36.016197-62.419379z m357.60826-0.232259c-3.590293 0-7.179441-0.463374-10.769734-1.273422-24.319714-5.90602-39.143115-30.456849-33.237095-54.776563 13.086606-53.385296-19.685971-107.582927-73.189113-120.669533-24.31857-5.90602-39.140827-30.456849-33.235951-54.775419 6.021578-24.319714 30.456849-39.143115 54.776563-33.237095 102.024724 25.014203 164.55966 128.313493 139.661015 230.22266-5.094829 20.728277-23.62408 34.509372-44.005685 34.509372z" p-id="4171"></path><path d="M960.538338 463.470409c-3.590293 0-7.179441-0.463374-10.769734-1.274565-24.319714-5.90602-39.141971-30.456849-33.237095-54.775419 34.510516-140.587763-51.996317-283.144581-192.584081-317.53954-24.319714-5.90602-39.141971-30.456849-33.237095-54.776563 5.907164-24.31857 30.456849-39.140827 54.776564-33.235951 189.227191 46.322556 305.380827 237.981032 259.057126 427.091522-5.094829 20.613864-23.508523 34.510516-44.005685 34.510516zM265.473453 786.798123l111.521037 218.410619c12.50653 24.550829 47.595978 24.550829 60.219209 0l111.521037-218.410619c11.464223-22.466217-4.863714-49.217216-30.110177-49.217216H295.582485c-25.246463 0-41.5744 26.635441-30.110176 49.217216z" p-id="4172"></path></svg>