<?xml version="1.0" standalone="no"?><!DOCTYPE svg PUBLIC "-//W3C//DTD SVG 1.1//EN" "http://www.w3.org/Graphics/SVG/1.1/DTD/svg11.dtd"><svg t="1602869292661" class="icon" viewBox="0 0 1024 1024" version="1.1" xmlns="http://www.w3.org/2000/svg" p-id="3424" xmlns:xlink="http://www.w3.org/1999/xlink" width="200" height="200"><defs><style type="text/css"></style></defs><path d="M928 0A96 96 0 0 1 1024 96v832a96 96 0 0 1-96 96h-832A96 96 0 0 1 0 928v-832A96 96 0 0 1 96 0h832zM64 928a32 32 0 0 0 32 32H320v-256H64v224z m576-224H384v256h256v-256z m320 0h-256v256h224a32 32 0 0 0 32-32V704z m0-64V384h-256v256h256zM64 640h256V384H64v256z m576-256H384v256h256V384z m288-320H704v256h256V96a32 32 0 0 0-32-32zM320 64H96a32 32 0 0 0-32 32V320h256V64z m320 0H384v256h256V64z" p-id="3425"></path></svg>