<?xml version="1.0" standalone="no"?><!DOCTYPE svg PUBLIC "-//W3C//DTD SVG 1.1//EN" "http://www.w3.org/Graphics/SVG/1.1/DTD/svg11.dtd"><svg t="1606548321465" class="icon" viewBox="0 0 1024 1024" version="1.1" xmlns="http://www.w3.org/2000/svg" p-id="6602" xmlns:xlink="http://www.w3.org/1999/xlink" width="200" height="200"><defs><style type="text/css"></style></defs><path d="M806.775467 819.2h51.746133V450.56h-51.746133V819.2z m-72.362667 0V450.56H682.666667V819.2h51.712z m-124.142933 0V450.56H413.696V819.2h196.539733zM341.333333 819.2V450.56H289.621333V819.2H341.333333z m-124.1088 0V450.56H165.4784V819.2h51.746133z m-124.142933 0V450.56H0V202.205867L512 0l512 202.205867V450.56h-93.0816V819.2h31.0272L1024 1024H0l62.0544-204.8h31.061333zM72.3968 317.44v61.44H951.637333V317.44H72.362667z m12.6976-71.68h853.8112L512 77.141333 85.0944 245.76z m822.954667 645.12H115.950933l-18.602666 61.44h829.371733l-18.602667-61.44z" p-id="6603"></path></svg>