<?xml version="1.0" standalone="no"?><!DOCTYPE svg PUBLIC "-//W3C//DTD SVG 1.1//EN" "http://www.w3.org/Graphics/SVG/1.1/DTD/svg11.dtd"><svg t="1603439301031" class="icon" viewBox="0 0 1024 1024" version="1.1" xmlns="http://www.w3.org/2000/svg" p-id="12077" xmlns:xlink="http://www.w3.org/1999/xlink" width="128" height="128"><defs><style type="text/css"></style></defs><path d="M720 128v64c0 17.6-14.4 32-32 32H304c-17.6 0-32-14.4-32-32v-64c0-17.6 14.4-32 32-32h384c17.6 0 32 14.4 32 32z" p-id="12078"></path><path d="M784 128v64c0 52.9-43.1 96-96 96H304c-52.9 0-96-43.1-96-96v-64c-35.2 0-64 26.6-64 59.1v649.8c0 15.7 6.8 30.1 17.7 40.7 2.2 2.1 4.6 4.1 7.1 5.9 1.5 1.1 3.1 2.1 4.7 3.1 2.2 1.3 4.4 2.5 6.8 3.5 0.9 0.4 1.9 0.8 2.8 1.2 1 0.4 1.9 0.7 2.9 1.1 2.5 0.8 5 1.5 7.5 2.1 1 0.2 2.1 0.4 3.1 0.6 3.7 0.6 7.4 0.9 11.3 0.9h361.6c-5.4-8.8-10.2-18-14.2-27.5-10.6-25-16-51.5-16-78.7v-0.2c0-27.3 5.4-53.8 16-78.7 10.2-24.1 24.8-45.7 43.3-64.2 18.6-18.5 40.2-33.1 64.3-43.3 25-10.6 51.4-15.9 78.7-16h0.1c27.3 0 53.7 5.4 78.7 16 9.6 4.1 18.8 8.8 27.5 14.2V187.1c0.1-32.5-28.7-59.1-63.9-59.1zM678.6 566.9c-5.8 5.8-13.8 9.4-22.6 9.4H336c-17.6 0-32-14.4-32-32 0-8.8 3.6-16.8 9.4-22.6s13.8-9.4 22.6-9.4h320c17.6 0 32 14.4 32 32 0 8.8-3.6 16.8-9.4 22.6z m0-127.6c-5.8 5.8-13.8 9.4-22.6 9.4H336c-17.6 0-32-14.4-32-32 0-8.8 3.6-16.8 9.4-22.6 5.8-5.8 13.8-9.4 22.6-9.4h320c17.6 0 32 14.4 32 32 0 8.8-3.6 16.8-9.4 22.6z" p-id="12079"></path><path d="M720 128v64c0 17.6-14.4 32-32 32H304c-17.6 0-32-14.4-32-32v-64c0-17.6 14.4-32 32-32h384c17.6 0 32 14.4 32 32z" p-id="12080"></path><path d="M741.7 651.4c-76.4 0.1-138.2 61.9-138.3 138.3 0.1 76.4 62 138.3 138.3 138.3 76.4-0.1 138.3-62 138.3-138.3-0.1-76.4-62-138.2-138.3-138.3z m-1.5 201.8c-41.8 0-77.6-26.8-92.4-64.7 14.8-37.9 50.6-64.7 92.4-64.7 41.8 0 77.6 26.8 92.4 64.7-14.8 38-50.6 64.7-92.4 64.7z" p-id="12081"></path><path d="M773.5 788.6c0 19-14.9 34.5-33.3 34.5s-33.3-15.5-33.3-34.5c0-19.1 14.8-34.5 33.3-34.5 18.4 0 33.3 15.4 33.3 34.5z" p-id="12082"></path></svg>