<?xml version="1.0" standalone="no"?><!DOCTYPE svg PUBLIC "-//W3C//DTD SVG 1.1//EN" "http://www.w3.org/Graphics/SVG/1.1/DTD/svg11.dtd"><svg t="1606289612414" class="icon" viewBox="0 0 1024 1024" version="1.1" xmlns="http://www.w3.org/2000/svg" p-id="5846" xmlns:xlink="http://www.w3.org/1999/xlink" width="200" height="200"><defs><style type="text/css"></style></defs><path d="M761.544682 260.334024c-19.311094-31.965712 19.164797-38.402743 19.164797-38.402743v-31.965712H243.509965v31.965712s38.256447 6.510179 19.164797 38.402743c-19.164797 31.965712-121.572112 159.828559-262.309022 159.828559 0 0 44.693478 89.6064 185.576684 102.334167v268.526609h134.299879V528.860633h38.256447v262.162726H435.231088V528.860633h140.73691v262.162726h76.732338V528.860633h51.276805v262.162726h140.590614V516.206015c134.299879-6.437031 179.139653-96.043432 179.139653-96.043432-140.73691 0-242.997928-134.299879-262.162726-159.828559zM109.795271 850.200157h804.628902v111.989714h-804.628902z" p-id="5847" data-spm-anchor-id="a313x.7781069.0.i0" class="selected"></path></svg>