<?xml version="1.0" standalone="no"?><!DOCTYPE svg PUBLIC "-//W3C//DTD SVG 1.1//EN" "http://www.w3.org/Graphics/SVG/1.1/DTD/svg11.dtd"><svg t="1603546590064" class="icon" viewBox="0 0 1024 1024" version="1.1" xmlns="http://www.w3.org/2000/svg" p-id="4446" xmlns:xlink="http://www.w3.org/1999/xlink" width="200" height="200"><defs><style type="text/css"></style></defs><path d="M949.59984 158.215471c0-46.257046-37.558265-83.815311-83.815311-83.815311H158.215471c-46.257046 0-83.815311 37.558265-83.815311 83.815311V865.784529c0 46.257046 37.558265 83.815311 83.815311 83.815311H865.784529c46.257046 0 83.815311-37.558265 83.815311-83.815311V158.215471z m-790.360983-15.862483h707.773735c8.698781 0 14.736758 5.935639 14.736758 14.63442v398.506496H676.560464c-18.727963 0-33.976414 14.532081-33.976414 33.362382 0 74.093144-60.277434 133.961223-134.268239 133.961223-72.148711 0-131.198081-57.411953-134.165901-128.844293 0.307016-1.842095 0.409354-3.070158 0.409354-5.014591 0-18.727963-15.248451-33.464721-33.976414-33.464721H142.352988V156.987408c0-8.801119 8.187088-14.634419 16.885869-14.63442z m707.773735 739.396362H159.238857c-8.698781 0-16.885868-8.289426-16.885869-16.988207V623.446732h166.504897c16.169498 95.174895 99.473116 168.244653 199.457926 168.244653s183.186088-73.069758 199.457925-168.244653h173.975614V864.761143c0 8.698781-6.037977 16.988207-14.736758 16.988207z" fill="" p-id="4447"></path><path d="M320.115131 300.261443h384.179092c18.727963 0 33.976414-15.146112 33.976415-33.976414 0-18.727963-15.248451-33.976414-33.976415-33.976414H320.115131c-18.727963 0-33.976414 15.146112-33.976414 33.976414 0 18.830302 15.248451 33.976414 33.976414 33.976414zM320.115131 456.737158h384.179092c18.727963 0 33.976414-15.146112 33.976415-33.976414s-15.248451-33.976414-33.976415-33.976415H320.115131c-18.727963 0-33.976414 15.146112-33.976414 33.976415s15.248451 33.976414 33.976414 33.976414z" fill="" p-id="4448"></path></svg>