<?xml version="1.0" standalone="no"?><!DOCTYPE svg PUBLIC "-//W3C//DTD SVG 1.1//EN" "http://www.w3.org/Graphics/SVG/1.1/DTD/svg11.dtd"><svg t="1606558512075" class="icon" viewBox="0 0 1024 1024" version="1.1" xmlns="http://www.w3.org/2000/svg" p-id="6483" xmlns:xlink="http://www.w3.org/1999/xlink" width="200" height="200"><defs><style type="text/css"></style></defs><path d="M576 508.8c70.4 0 128-57.6 128-128s-57.6-128-128-128-128 57.6-128 128 57.6 128 128 128z m0-192c35.2 0 64 28.8 64 64s-28.8 64-64 64-64-28.8-64-64 28.8-64 64-64zM624 531.2h-96c-99.2 0-176 105.6-176 176 0 16 0 64 64 64h320c64 0 64-48 64-64 0-70.4-76.8-176-176-176zM416 707.2c0-38.4 51.2-112 112-112h96c60.8 0 112 73.6 112 112H416z" p-id="6484"></path><path d="M864 32H224C169.6 32 128 73.6 128 128v185.6H96c-19.2 0-32 12.8-32 32s12.8 32 32 32h32v256H96c-19.2 0-32 12.8-32 32s12.8 32 32 32h32V896c0 54.4 41.6 96 96 96h640c54.4 0 96-41.6 96-96V128c0-54.4-41.6-96-96-96z m32 864c0 19.2-12.8 32-32 32H224c-19.2 0-32-12.8-32-32v-198.4h32c19.2 0 32-12.8 32-32s-12.8-32-32-32H192v-256h32c19.2 0 32-12.8 32-32s-12.8-32-32-32H192V128c0-19.2 12.8-32 32-32h640c19.2 0 32 12.8 32 32v768z" p-id="6485"></path></svg>