<?xml version="1.0" standalone="no"?><!DOCTYPE svg PUBLIC "-//W3C//DTD SVG 1.1//EN" "http://www.w3.org/Graphics/SVG/1.1/DTD/svg11.dtd"><svg t="1606548834296" class="icon" viewBox="0 0 1024 1024" version="1.1" xmlns="http://www.w3.org/2000/svg" p-id="7100" xmlns:xlink="http://www.w3.org/1999/xlink" width="200" height="200"><defs><style type="text/css"></style></defs><path d="M218.346667 647.744c-2.346667-4.992-6.869333-10.602667-11.605334-12.352-24.810667-9.237333-42.453333-26.24-50.816-51.84-5.418667-16.597333-15.317333-28.352-27.562666-39.104-13.696-12.010667-27.562667-23.893333-40.704-36.544-41.258667-39.786667-24.213333-80.426667 17.770666-97.429333 29.034667-11.733333 58.602667-22.890667 88.832-30.4 64.384-16.042667 119.146667-70.570667 169.898667-113.749334 25.92-22.058667 53.909333-42.944 83.904-58.133333 52.8-26.752 105.877333-19.136 154.368 13.909333 29.888 20.373333 58.048 43.690667 86.016 66.944 40.832 33.962667 87.424 75.797333 137.28 90.496 33.514667 9.877333 66.24 22.848 99.221333 34.730667 4.629333 1.664 8.96 4.693333 13.056 7.573333 25.685333 18.197333 30.570667 46.997333 10.325334 71.68-12.352 15.04-27.2 28.032-41.706667 41.002667-16.896 15.04-32.597333 30.08-40.021333 53.333333-7.381333 23.125333-25.365333 36.736-46.442667 46.314667-4.821333 2.218667-10.218667 6.314667-12.458667 11.050667-31.722667 67.114667-84.693333 114.026667-150.826666 139.882666-47.104 18.410667-96.213333 23.637333-144.426667 25.557334-77.653333-2.304-150.784-15.616-214.869333-62.272-34.432-25.066667-60.672-61.12-79.232-100.650667z m11.349333-72.597333l1.514667 0.021333 2.645333 0.448c176.469333 29.909333 373.589333 29.44 552.597333-1.493333l16.149334-2.837334c2.090667-1.322667 2.816-2.218667 3.008-2.858666 10.730667-33.664 27.264-53.930667 58.453333-81.685334 2.410667-2.197333 2.410667-2.197333 4.8-4.309333 6.570667-5.866667 11.733333-10.56 16-14.656l-6.464-2.389333-1.429333-0.533334c-35.050667-12.949333-50.517333-18.346667-69.333334-23.936-63.338667-18.666667-115.050667-65.216-160.106666-102.613333-39.936-33.216-58.410667-47.829333-81.130667-63.317333-31.786667-21.653333-60.053333-24.597333-89.386667-9.706667-22.101333 11.178667-45.141333 27.456-71.381333 49.792-62.208 52.928-125.226667 109.504-195.925333 127.104-21.12 5.269333-42.794667 12.693333-72.512 24.533333 6.442667 5.994667 13.589333 12.373333 26.133333 23.296l0.917333 0.810667 6.336 5.546667c21.973333 19.285333 37.290667 40.064 46.186667 67.349333 1.92 5.781333 4.565333 8.64 11.306667 11.306667l1.621333 0.128z m105.536 121.493333c45.354667 33.024 99.52 47.445333 176.896 49.984 51.413333-2.176 88.213333-8.149333 121.429333-21.12 43.690667-17.066667 76.842667-44.202667 100.202667-79.146667a77.589333 77.589333 0 0 1-13.546667 2.389334 1613.077333 1613.077333 0 0 1-402.688 0.661333l0.106667 0.106667c-6.037333-1.322667-16.682667-2.538667-27.733333-3.605334 11.84 19.349333 26.666667 37.141333 45.333333 50.730667z" p-id="7101"></path><path d="M490.666667 430.762667v12.821333c0 18.346667 8 35.477333 21.312 47.082667A63.146667 63.146667 0 0 0 533.333333 443.157333v-12.650666a59.370667 59.370667 0 0 0-42.666666 0.256zM512 554.666667l-14.954667-7.082667C454.293333 527.36 426.666667 484.074667 426.666667 437.397333v-42.624l11.818666-8.618666c42.901333-31.253333 104.021333-31.04 146.602667-1.045334l12.245333 8.64v43.178667a123.136 123.136 0 0 1-70.378666 110.656L512 554.666667z" p-id="7102"></path></svg>