<?xml version="1.0" standalone="no"?><!DOCTYPE svg PUBLIC "-//W3C//DTD SVG 1.1//EN" "http://www.w3.org/Graphics/SVG/1.1/DTD/svg11.dtd"><svg t="1606709402283" class="icon" viewBox="0 0 1024 1024" version="1.1" xmlns="http://www.w3.org/2000/svg" p-id="6591" xmlns:xlink="http://www.w3.org/1999/xlink" width="200" height="200"><defs><style type="text/css"></style></defs><path d="M672.142222 0a17.066667 17.066667 0 0 1 15.246222 9.443556L711.111111 56.888889H853.333333a56.888889 56.888889 0 0 1 56.888889 56.888889v568.888889a170.666667 170.666667 0 0 1-143.36 168.504889l74.126222 148.138666a17.066667 17.066667 0 0 1-11.377777 24.234667l-3.868445 0.455111h-75.662222a17.066667 17.066667 0 0 1-13.141333-6.257778l-2.104889-3.185778L711.111111 967.111111H312.832l-23.665778 47.445333a17.066667 17.066667 0 0 1-15.246222 9.443556h-75.662222a17.066667 17.066667 0 0 1-15.246222-24.689778l74.126222-148.138666A170.666667 170.666667 0 0 1 113.777778 682.666667V113.777778a56.888889 56.888889 0 0 1 56.888889-56.888889h142.222222l23.722667-47.445333A17.066667 17.066667 0 0 1 351.857778 0h320.284444zM654.222222 853.333333h-284.444444L341.333333 910.222222h341.333334l-28.444445-56.888889z m-341.333333-284.444444a85.333333 85.333333 0 1 0 0 170.666667 85.333333 85.333333 0 0 0 0-170.666667z m398.222222 0a85.333333 85.333333 0 1 0 0 170.666667 85.333333 85.333333 0 0 0 0-170.666667zM796.444444 170.666667H227.555556v284.444444h568.888888V170.666667z" fill="#3b9afe" p-id="6592"></path></svg>