<?xml version="1.0" standalone="no"?><!DOCTYPE svg PUBLIC "-//W3C//DTD SVG 1.1//EN" "http://www.w3.org/Graphics/SVG/1.1/DTD/svg11.dtd"><svg t="1603337568694" class="icon" viewBox="0 0 1024 1024" version="1.1" xmlns="http://www.w3.org/2000/svg" p-id="4472" xmlns:xlink="http://www.w3.org/1999/xlink" width="200" height="200"><defs><style type="text/css"></style></defs><path d="M806.6 883.5v-590c0-7.4-3.4-14.4-9.1-18.9L544 73.8c-17.5-13.9-42.3-14-59.9-0.1L231.3 272.2c-5.8 4.6-9.2 11.6-9.2 19v592.3H104.3c-6.4 0-12.6 2.5-17.1 7.1-4.5 4.5-7.1 10.7-7.1 17.1v25.1c0 6.4 2.5 12.5 7.1 17.1 4.5 4.5 10.7 7.1 17.1 7.1h814.9c6.4 0 12.5-2.5 17.1-7.1 4.5-4.5 7.1-10.7 7.1-17.1v-25.1c0-6.4-2.5-12.5-7.1-17.1-4.5-4.5-10.7-7.1-17.1-7.1H806.6z m-359.3-594h129.5v130.2H447.3V289.5z m17.3 479H357.7V660.7h106.8v107.8z m0-181.9H357.7V479.2h106.8v107.4z m201.7 181.9H559.5V660.7h106.8v107.8z m0-181.9H559.5V479.2h106.8v107.4z m0 0" p-id="4473"></path></svg>