<?xml version="1.0" standalone="no"?><!DOCTYPE svg PUBLIC "-//W3C//DTD SVG 1.1//EN" "http://www.w3.org/Graphics/SVG/1.1/DTD/svg11.dtd"><svg t="1603337563221" class="icon" viewBox="0 0 1024 1024" version="1.1" xmlns="http://www.w3.org/2000/svg" p-id="4347" xmlns:xlink="http://www.w3.org/1999/xlink" width="200" height="200"><defs><style type="text/css"></style></defs><path d="M331.776 807.936H696.32v39.936H331.776zM355.328 339.968h320c13.824 0 24.576-10.752 24.576-24.576 0-12.288-9.216-23.04-21.504-24.576-3.072-79.872-64.512-147.456-145.92-155.136v-13.824c0-10.752-7.68-18.432-18.432-18.432s-18.432 7.68-18.432 18.432v13.824c-79.872 9.216-142.848 75.264-144.384 156.672-12.288 1.536-21.504 12.288-21.504 24.576 0.512 12.288 11.264 23.04 25.6 23.04zM676.864 350.72h-327.68v31.232h-15.872v190.464h15.872v226.816h327.68v-226.816h15.36V381.952h-15.36v-1.536zM251.904 394.24v-4.608c0-1.536-1.536-7.68-6.144-7.68-35.328 0-61.44 39.936-61.44 92.16s27.648 92.16 62.976 92.16c4.608 0 6.144-4.608 6.144-7.68 0-1.536 0-3.072-1.536-4.608V394.24zM324.096 564.736V388.096c0-15.36-13.824-27.648-29.184-27.648-16.896 0-29.184 12.288-29.184 27.648V563.2c0 15.36 13.824 27.648 29.184 27.648 15.36 1.536 29.184-10.752 29.184-26.112zM779.776 383.488c-4.608 0-9.216 0-9.216 9.216v167.936c0 9.216 6.144 9.216 9.216 9.216 32.256 0 59.904-41.472 59.904-92.16 0-52.736-27.648-94.208-59.904-94.208zM709.12 856.064H322.56c-16.896 0-32.256 13.824-32.256 32.256 0 16.896 13.824 32.256 32.256 32.256h384.512c16.896 0 32.256-13.824 32.256-32.256 0.512-18.432-13.312-32.256-30.208-32.256zM729.088 359.936c-16.896 0-29.184 12.288-29.184 27.648V563.2c0 15.36 13.824 27.648 29.184 27.648 16.896 0 29.184-12.288 29.184-27.648V388.096c1.536-15.36-12.288-28.16-29.184-28.16z" p-id="4348"></path></svg>