<?xml version="1.0" standalone="no"?><!DOCTYPE svg PUBLIC "-//W3C//DTD SVG 1.1//EN" "http://www.w3.org/Graphics/SVG/1.1/DTD/svg11.dtd"><svg t="1605076528962" class="icon" viewBox="0 0 1024 1024" version="1.1" xmlns="http://www.w3.org/2000/svg" p-id="9280" xmlns:xlink="http://www.w3.org/1999/xlink" width="200" height="200"><defs><style type="text/css"></style></defs><path d="M442.511913 595.890943a87.91 87.91 0 1 0 124.321345-124.325685 87.91 87.91 0 1 0-124.321345 124.325685Z" p-id="9281"></path><path d="M504.68 725.37c-105.67 0-191.64-85.97-191.64-191.64 0-17.67-14.33-32-32-32s-32 14.33-32 32c0 140.96 114.68 255.64 255.64 255.64 17.67 0 32-14.33 32-32s-14.33-32-32-32zM504.68 278.09c-17.67 0-32 14.33-32 32s14.33 32 32 32c105.67 0 191.64 85.97 191.64 191.64 0 17.67 14.33 32 32 32s32-14.33 32-32c-0.01-140.96-114.68-255.64-255.64-255.64z" p-id="9282"></path><path d="M877.59 376.18c-20.39-48.2-49.56-91.48-86.72-128.64s-80.44-66.34-128.64-86.72C612.31 139.71 559.3 129 504.68 129c-54.62 0-107.63 10.71-157.55 31.82-48.2 20.39-91.48 49.56-128.64 86.72s-66.34 80.44-86.72 128.64C110.66 426.1 99.95 479.1 99.95 533.73s10.71 107.63 31.82 157.55c20.39 48.2 49.56 91.48 86.72 128.64s80.44 66.34 128.64 86.72c49.92 21.11 102.92 31.82 157.55 31.82 54.62 0 107.63-10.71 157.55-31.82 48.2-20.39 91.48-49.56 128.64-86.72s66.34-80.44 86.72-128.64c21.11-49.92 31.82-102.92 31.82-157.55S898.7 426.1 877.59 376.18zM504.68 874.46c-187.88 0-340.73-152.85-340.73-340.73C163.95 345.85 316.8 193 504.68 193s340.73 152.85 340.73 340.73c0 187.88-152.85 340.73-340.73 340.73z" p-id="9283"></path></svg>