<?xml version="1.0" standalone="no"?><!DOCTYPE svg PUBLIC "-//W3C//DTD SVG 1.1//EN" "http://www.w3.org/Graphics/SVG/1.1/DTD/svg11.dtd"><svg t="1605076462321" class="icon" viewBox="0 0 1024 1024" version="1.1" xmlns="http://www.w3.org/2000/svg" p-id="9155" xmlns:xlink="http://www.w3.org/1999/xlink" width="200" height="200"><defs><style type="text/css"></style></defs><path d="M627.8144 375.6544a25.9072 25.9072 0 1 0 25.1392 25.9072 25.6 25.6 0 0 0-25.1392-25.9072z m-108.1856-293.12c-204.8 0-374.6816 152.4736-409.344 353.28l0.256-1.0752-1.6896 10.7008a440.32 440.32 0 0 0-5.376 65.6896c0 236.6976 186.3168 428.5952 416.1536 428.5952s416.2048-191.8976 416.2048-428.5952-186.368-428.5952-416.2048-428.5952z m0 46.336a360.8576 360.8576 0 0 1 111.0528 17.408 581.4784 581.4784 0 0 0-186.5728 67.584 42.9056 42.9056 0 0 0-55.3472 2.7648q-36.4032-13.9264-73.9328-24.2176a361.7792 361.7792 0 0 1 204.8-63.5392zM166.9632 629.76A391.5776 391.5776 0 0 1 148.48 511.1296c0-3.6864 0.4096-7.2192 0.512-10.8544 6.9632 5.7344 14.5408 11.8272 23.2448 18.3296a46.08 46.08 0 0 0 14.336 32.7168A677.9904 677.9904 0 0 0 166.9632 629.76z m13.3632-138.8032c-9.984-7.0144-19.8656-14.2336-29.5424-21.6576a384.7168 384.7168 0 0 1 133.12-253.5424 928 928 0 0 1 90.4704 26.4192 49.1008 49.1008 0 0 0-0.9216 8.704 45.6192 45.6192 0 0 0 1.536 11.264 577.9456 577.9456 0 0 0-158.0544 209.408 44.2368 44.2368 0 0 0-36.4032 19.456z m43.776 250.88a388.4032 388.4032 0 0 1-33.8944-54.9376 816.2816 816.2816 0 0 1 26.3168-123.2384 42.496 42.496 0 0 0 16.6912-3.4304q28.5696 17.5104 58.4192 32.5632a54.1696 54.1696 0 0 0 1.28 31.7952 543.9488 543.9488 0 0 0-68.8128 117.1456z m295.5264 151.6544a364.9024 364.9024 0 0 1-268.1344-118.4256 486.7072 486.7072 0 0 1 62.464-121.2928 54.784 54.784 0 0 0 32.2048 10.5984 55.7056 55.7056 0 0 0 48.0768-28.672 796.5696 796.5696 0 0 0 156.8768 35.84 675.84 675.84 0 0 0 16.384 134.2464 31.1296 31.1296 0 0 0-15.36 26.9312 30.72 30.72 0 0 0 30.1568 31.1296h0.4096c2.2016 7.424 4.5056 14.848 6.912 22.3744a359.168 359.168 0 0 1-69.9904 7.168z m191.744-55.3984a363.52 363.52 0 0 1-94.1568 41.5744c-3.072-10.6496-4.7616-11.264-7.3728-21.6064 2.4576-4.5056 11.1616-21.9648 11.1616-27.5456 0-10.752-13.6704-22.7328-21.76-28.3136a670.72 670.72 0 0 1-15.36-127.0784 818.8416 818.8416 0 0 0 102.7584 1.8432 56.9344 56.9344 0 0 0 39.9872 44.288 591.0528 591.0528 0 0 1-15.2576 116.736z m33.4848-23.5008a613.6832 613.6832 0 0 0 15.36-94.4128 57.4976 57.4976 0 0 0 37.5296-54.5792v-1.024c22.016-3.84 44.5952-8.9088 67.4816-14.6432a381.9008 381.9008 0 0 1-120.2688 164.4544z m44.7488-178.3808a56.32 56.32 0 0 0-32.512-25.6 413.7472 413.7472 0 0 0-43.3664-133.12 112.128 112.128 0 0 1-27.648 25.0368 457.6768 457.6768 0 0 1 33.3824 110.2336 57.1904 57.1904 0 0 0-30.1568 32.9728 808.96 808.96 0 0 1-105.0624-3.4816 510.208 510.208 0 0 1 19.9168-125.696 108.8 108.8 0 0 1-29.3888-11.6736 523.2128 523.2128 0 0 0-22.8864 133.5296 831.6416 831.6416 0 0 1-149.8112-35.84 58.0608 58.0608 0 0 0-12.0832-32.2048A577.2288 577.2288 0 0 1 542.72 476.5696a113.5104 113.5104 0 0 1-18.3808-35.2256 604.16 604.16 0 0 0-164.3008 109.2608 53.3504 53.3504 0 0 0-13.6192-1.9456 55.0912 55.0912 0 0 0-38.7072 16.0768q-25.9584-12.288-51.2-26.2656a47.0528 47.0528 0 0 0 5.12-20.8896 46.3872 46.3872 0 0 0-15.36-34.304 540.8768 540.8768 0 0 1 144.5376-196.1472A43.52 43.52 0 0 0 418.048 296.96a44.1856 44.1856 0 0 0 37.376-20.992 572.9792 572.9792 0 0 1 91.1872 55.552 111.8208 111.8208 0 0 1 20.7872-18.8416 707.8912 707.8912 0 0 0-104.96-63.6928 46.4384 46.4384 0 0 0-1.9968-11.5712 552.96 552.96 0 0 1 213.0432-73.8304 371.3536 371.3536 0 0 1 102.4 71.68 504.32 504.32 0 0 0-88.6784 76.032 109.6704 109.6704 0 0 1 24.0128 21.504 420.608 420.608 0 0 1 90.112-70.0416 384 384 0 0 1 66.2528 116.5312 911.6672 911.6672 0 0 0-131.6352 5.12 120.8832 120.8832 0 0 1 2.0992 22.1184 123.6992 123.6992 0 0 1-1.1776 15.8208 917.6576 917.6576 0 0 1 140.6464-11.2128 385.8944 385.8944 0 0 1-1.6384 206.4896 867.4816 867.4816 0 0 1-86.272 18.4832z m-161.792-311.04a80.2816 80.2816 0 1 0 77.8752 80.2304 79.0528 79.0528 0 0 0-77.8752-80.3328z m0 132.352a52.1728 52.1728 0 1 1 50.6368-52.1216 51.2 51.2 0 0 1-50.6368 52.0192z" p-id="9156"></path></svg>